<?xml version="1.0" standalone="no"?>
<!DOCTYPE svg PUBLIC "-//W3C//DTD SVG 20010904//EN"
 "http://www.w3.org/TR/2001/REC-SVG-20010904/DTD/svg10.dtd">
<svg version="1.0" xmlns="http://www.w3.org/2000/svg"
 width="1600.000000pt" height="1600.000000pt" viewBox="0 0 1600.000000 1600.000000"
 preserveAspectRatio="xMidYMid meet">

<g transform="translate(0.000000,1600.000000) scale(0.100000,-0.100000)"
fill="#000000" stroke="none">
<path d="M2 14254 l3 -1746 38 -15 c34 -14 39 -14 57 2 15 14 28 15 77 8 32
-5 73 -6 92 -2 18 4 113 7 210 7 172 0 177 -1 231 -28 71 -36 104 -79 96 -126
-7 -35 -38 -64 -68 -64 -10 0 -18 -4 -18 -9 0 -18 -86 -49 -150 -55 -138 -11
-255 -38 -272 -61 -4 -5 -10 -6 -13 -3 -4 4 -25 -7 -48 -23 -50 -36 -95 -38
-151 -5 -23 13 -51 27 -64 30 l-22 7 0 -3765 0 -3766 40 0 c22 0 59 -5 82 -11
37 -10 48 -9 78 8 28 16 42 18 70 10 19 -5 48 -6 65 -2 16 3 50 10 75 14 25 5
75 16 112 24 97 22 312 22 391 1 34 -9 68 -24 74 -32 7 -9 15 -13 19 -10 7 8
55 -7 119 -38 62 -30 81 -42 119 -76 17 -14 59 -48 93 -75 34 -26 117 -93 183
-148 250 -206 276 -226 350 -267 62 -34 154 -62 182 -54 22 5 47 48 92 156 40
97 98 214 129 262 18 29 44 71 57 93 38 66 89 113 129 120 20 3 54 17 76 30
167 100 252 117 351 70 99 -47 132 -74 159 -129 13 -28 27 -71 30 -95 5 -44
19 -71 36 -71 5 0 33 22 63 49 32 29 77 57 112 70 52 20 65 21 120 12 158 -28
260 -97 304 -207 25 -61 41 -67 108 -38 77 33 206 12 311 -50 77 -45 115 -125
125 -260 3 -43 11 -84 16 -91 6 -8 49 -14 110 -17 86 -4 108 -9 162 -36 107
-53 144 -98 159 -194 6 -34 21 -87 36 -117 21 -47 23 -61 15 -86 -16 -45 -29
-128 -42 -250 -7 -60 -21 -150 -32 -200 -12 -49 -21 -98 -22 -107 0 -10 -7
-17 -15 -15 -8 1 -23 -16 -36 -40 -11 -24 -30 -51 -41 -61 -10 -10 -44 -47
-74 -83 -93 -108 -126 -135 -186 -148 -29 -7 -59 -9 -65 -5 -8 4 -9 3 -5 -4 9
-15 -35 -17 -50 -3 -5 5 -38 15 -74 21 -36 6 -79 16 -96 21 -17 5 -43 9 -58 9
-15 0 -56 7 -92 16 -56 14 -70 23 -104 63 -22 25 -40 52 -40 59 0 6 -4 12 -10
12 -5 0 -10 -4 -10 -8 0 -10 -111 -9 -126 0 -13 9 -201 21 -254 17 -122 -9
-158 -4 -190 27 -19 19 -30 39 -30 59 0 37 -14 60 -29 51 -6 -4 -11 -3 -11 3
0 5 6 12 13 14 9 4 8 8 -3 16 -21 15 -30 14 -30 -4 0 -9 -7 -18 -15 -21 -8 -4
-15 -12 -15 -20 0 -23 -39 -16 -68 12 -45 43 -100 74 -132 74 -16 0 -30 5 -30
10 0 6 -6 10 -14 10 -7 0 -36 18 -63 39 -58 47 -93 58 -132 41 -24 -9 -40 -8
-88 6 -32 10 -67 26 -79 36 -11 10 -26 18 -33 18 -7 0 -26 12 -41 27 -16 16
-50 44 -75 63 -25 19 -45 40 -45 46 0 14 -105 124 -118 124 -5 0 -15 13 -22
30 -7 17 -16 30 -21 30 -5 0 -9 7 -9 15 0 12 -39 42 -47 37 -12 -8 -55 1 -67
14 -9 8 -16 13 -16 9 0 -3 -9 -1 -19 5 -17 8 -24 5 -45 -23 -15 -19 -26 -39
-26 -44 0 -15 -24 -23 -52 -16 -30 8 -38 20 -38 66 0 43 -16 49 -30 11 -6 -14
-15 -22 -21 -19 -6 4 -13 -3 -16 -15 -5 -18 -11 -21 -36 -16 -16 3 -33 6 -38
6 -5 0 -9 9 -9 20 0 11 -7 23 -15 26 -8 4 -12 10 -9 15 3 5 -7 34 -21 64 -15
30 -25 62 -21 70 3 8 1 15 -4 15 -6 0 -10 7 -10 15 0 16 -38 93 -50 100 -4 2
-8 34 -9 70 -1 59 -4 69 -29 90 -15 14 -33 25 -39 25 -7 0 -13 4 -13 8 0 11
-76 37 -103 35 -12 -1 -50 14 -86 34 -110 61 -155 82 -174 83 -10 0 -36 9 -58
20 -31 16 -72 23 -182 30 -201 13 -240 24 -331 90 -38 27 -56 50 -81 105 l-33
69 -10 -38 c-6 -21 -8 -60 -5 -87 l6 -49 -36 0 c-19 0 -59 11 -89 25 -52 24
-145 35 -133 15 3 -5 -6 -19 -20 -32 -21 -18 -25 -30 -25 -75 0 -30 4 -63 10
-73 14 -27 16 -168 2 -182 -9 -9 -12 -486 -12 -1985 l0 -1973 8000 0 8000 0 0
335 0 335 -24 0 c-14 0 -31 -6 -38 -13 -7 -7 -24 -12 -38 -11 -14 1 -61 -9
-105 -23 -44 -14 -94 -26 -111 -28 -39 -4 -77 -15 -84 -25 -3 -5 -34 -11 -70
-14 -36 -4 -71 -7 -77 -8 -7 -1 -13 -4 -13 -8 0 -4 -13 -5 -30 -2 -16 2 -30 0
-30 -6 0 -15 -92 -2 -112 16 -10 8 -16 17 -14 21 4 7 -10 101 -19 131 -4 14
-2 20 8 20 14 0 37 40 37 65 0 7 -6 16 -12 19 -7 4 -3 4 9 2 12 -2 28 3 35 11
10 13 13 13 24 -1 10 -15 12 -15 18 -1 3 8 18 20 33 26 26 9 47 13 160 26 29
3 50 9 47 14 -3 5 1 7 8 4 7 -3 31 2 53 9 35 13 42 12 57 -1 15 -13 18 -13 27
6 6 11 17 18 25 15 8 -3 17 -1 20 5 4 5 18 8 31 5 14 -2 43 5 65 16 21 11 50
20 62 20 13 0 31 7 41 14 16 12 17 97 17 1519 l0 1506 -72 -41 c-40 -22 -78
-46 -84 -54 -6 -8 -16 -14 -21 -14 -6 0 -32 -25 -58 -55 -25 -30 -51 -53 -56
-49 -15 9 -7 63 9 57 10 -4 11 1 6 22 -5 20 -4 26 5 21 6 -4 11 -3 11 2 0 15
94 112 108 112 7 0 12 4 12 8 0 4 31 41 70 82 l70 75 0 1878 c0 1628 -2 1877
-14 1877 -8 0 -17 -4 -20 -9 -5 -8 -123 -36 -138 -33 -3 1 -37 -6 -75 -14 -37
-9 -84 -18 -103 -21 -19 -2 -48 -10 -65 -18 -16 -7 -57 -21 -90 -30 -33 -9
-70 -22 -83 -28 -12 -6 -62 -11 -110 -11 -74 0 -93 4 -127 24 -43 26 -66 50
-59 62 3 5 -1 8 -9 8 -19 0 -22 8 -37 100 -6 41 -15 82 -18 90 -7 17 -9 40
-13 115 -2 53 19 107 64 156 23 26 55 44 71 40 4 -1 43 10 85 23 42 14 97 31
124 37 26 6 47 16 47 20 0 5 13 9 29 9 17 0 31 6 35 16 9 23 8 24 -12 24 -10
0 -29 11 -42 25 -28 30 -41 31 -64 6 -17 -18 -60 -18 -72 0 -8 13 -80 11 -155
-5 -70 -14 -111 -9 -189 26 -52 22 -94 104 -87 167 4 39 12 52 50 86 55 50
142 95 182 95 17 0 36 5 43 12 9 9 15 9 24 0 7 -7 18 -12 26 -12 18 0 99 38
107 50 8 14 102 13 111 -1 3 -6 20 -8 38 -5 20 4 39 1 50 -7 24 -17 112 -5
168 24 23 12 51 19 64 16 13 -2 24 -1 24 3 0 18 53 -6 90 -40 23 -21 57 -46
77 -55 32 -16 36 -16 54 1 19 17 19 74 19 3266 l0 3248 -22 0 c-13 0 -39 -4
-58 -10 -19 -5 -55 -11 -80 -14 -50 -4 -312 -50 -378 -66 -23 -5 -58 -10 -77
-10 -18 0 -37 -4 -40 -10 -9 -15 -139 -12 -169 4 -67 35 -115 120 -116 207 0
19 -5 40 -11 46 -5 5 -11 46 -12 89 -2 64 2 85 18 109 41 63 82 82 210 100 34
4 218 33 252 39 11 2 32 8 45 12 12 4 34 9 48 10 79 6 148 18 172 30 32 16 62
19 38 4 -13 -8 -13 -10 1 -10 9 0 19 7 23 15 4 11 13 14 30 9 41 -10 66 4 66
37 l0 29 -2616 0 -2616 0 -30 -21 c-24 -17 -40 -21 -84 -17 -31 3 -62 12 -72
21 -25 23 -54 21 -85 -3 -14 -11 -30 -20 -36 -20 -19 0 -31 -46 -21 -80 5 -16
10 -34 11 -38 1 -4 4 -13 6 -20 3 -6 4 -45 2 -85 -4 -67 -7 -77 -44 -123 -34
-43 -48 -52 -90 -62 -28 -7 -61 -12 -73 -12 -12 0 -55 -9 -95 -20 -39 -11
-114 -22 -166 -25 -51 -3 -98 -8 -103 -11 -5 -3 -28 -8 -51 -10 -66 -6 -239
-34 -273 -45 -17 -5 -62 -13 -100 -18 -166 -23 -342 -51 -372 -61 -18 -6 -56
-14 -85 -16 -93 -9 -111 -12 -172 -23 -33 -7 -80 -14 -105 -16 -25 -3 -58 -8
-75 -12 -40 -9 -77 -4 -96 13 -8 8 -20 14 -26 14 -10 0 -92 95 -94 109 0 3 -2
15 -4 26 -2 11 -10 65 -18 120 -8 55 -15 105 -17 110 -12 48 42 149 95 176 43
23 281 69 352 69 23 0 54 5 70 11 15 7 37 13 48 14 149 19 185 27 188 40 1 7
-947 11 -2825 13 -2259 2 -2828 0 -2828 -10 0 -7 7 -51 15 -98 15 -83 12 -154
-6 -166 -5 -3 -9 -14 -9 -25 0 -10 -5 -19 -10 -19 -6 0 -22 -11 -35 -24 -22
-22 -32 -25 -165 -40 -14 -2 -34 -6 -45 -9 -11 -3 -39 -8 -61 -11 -23 -2 -59
-9 -80 -15 -22 -6 -70 -15 -109 -20 -38 -6 -95 -15 -125 -20 -30 -5 -111 -17
-180 -26 -69 -9 -153 -24 -188 -32 -35 -8 -90 -16 -124 -19 -33 -2 -64 -7 -69
-9 -4 -3 -41 -10 -81 -15 -108 -14 -251 -37 -353 -55 -49 -9 -106 -18 -125
-21 -19 -2 -55 -6 -80 -9 -107 -13 -150 2 -196 72 -34 52 -38 67 -59 219 -16
121 -15 141 14 188 26 41 59 61 116 71 22 3 49 10 60 15 17 7 86 19 190 34 42
6 153 26 195 36 19 4 -407 8 -948 9 l-982 1 2 -1746z m10132 1070 c9 -8 16
-23 16 -32 0 -13 2 -14 9 -4 14 23 22 -16 8 -41 -22 -39 -35 -47 -76 -47 -30
0 -41 4 -41 15 0 9 -9 15 -25 15 -30 0 -35 35 -6 45 10 3 18 13 17 23 0 11 7
18 22 20 12 2 22 8 22 13 0 15 37 10 54 -7z m-3401 -1326 c18 -2 98 -3 180 -2
118 2 150 -1 162 -12 13 -13 20 -12 59 6 50 22 96 26 96 8 0 -6 3 -9 6 -5 4 3
22 0 40 -8 19 -8 34 -12 34 -9 0 3 10 -1 23 -8 12 -7 25 -11 30 -10 4 1 30 -9
58 -23 29 -13 55 -22 59 -20 11 7 61 -20 54 -28 -4 -3 7 -9 22 -12 16 -3 36
-10 44 -16 55 -35 69 -47 63 -53 -4 -4 -1 -12 7 -17 12 -8 12 -12 2 -16 -10
-4 -9 -10 5 -25 10 -11 17 -22 16 -24 -8 -11 0 -26 26 -51 36 -34 65 -100 48
-107 -8 -3 -3 -12 12 -24 18 -15 22 -25 17 -45 -3 -14 -1 -29 4 -32 6 -4 8
-11 5 -16 -4 -5 4 -9 17 -9 17 0 19 -3 9 -9 -9 -6 -10 -11 -2 -15 6 -4 11 -15
11 -26 0 -10 7 -21 17 -24 14 -6 14 -9 -5 -27 -23 -20 -30 -35 -12 -24 17 11
11 -4 -11 -26 -17 -17 -19 -23 -8 -30 8 -4 15 -13 15 -19 1 -5 2 -14 3 -19 0
-5 13 -12 29 -17 20 -5 23 -8 10 -11 -10 -3 -18 -11 -18 -18 0 -8 -9 -30 -20
-50 -21 -37 -23 -85 -4 -85 13 0 24 -53 24 -117 0 -25 5 -43 11 -43 6 0 8 -7
5 -15 -3 -8 -9 -22 -12 -30 -4 -9 0 -15 9 -15 9 0 22 -10 29 -23 36 -63 55
-87 75 -91 21 -6 83 -80 83 -101 0 -6 9 -18 20 -28 11 -9 20 -25 20 -36 0 -10
7 -32 15 -47 10 -18 15 -51 14 -89 -1 -33 -1 -62 0 -65 3 -7 13 -618 12 -672
-1 -27 3 -48 8 -48 13 0 2 -71 -14 -90 -7 -8 -15 -39 -19 -69 -4 -29 -14 -60
-22 -68 -8 -9 -14 -10 -14 -3 0 6 -4 9 -10 5 -5 -3 -7 -12 -3 -20 3 -8 1 -15
-5 -15 -5 0 -7 -11 -5 -24 4 -18 0 -26 -18 -31 -16 -5 -26 -3 -33 7 -7 12 -14
12 -31 4 -32 -15 -44 -37 -34 -64 8 -22 10 -22 34 -6 26 17 33 34 13 34 -6 0
-9 2 -7 5 12 11 81 -18 88 -37 7 -19 9 -18 24 13 21 42 47 73 68 81 12 5 19
26 24 75 4 37 11 76 16 86 8 13 6 17 -8 17 -16 1 -16 2 2 12 11 6 27 19 36 30
15 19 16 18 34 -22 14 -30 23 -39 34 -34 51 21 57 18 81 -46 16 -44 27 -60 39
-58 12 2 17 20 22 78 4 41 12 89 18 107 10 26 10 43 -4 95 -9 34 -20 67 -25
72 -16 16 -11 40 10 54 11 7 20 21 20 32 0 10 6 24 13 29 6 6 30 26 53 45 40
34 41 35 57 15 9 -10 21 -38 26 -60 15 -64 24 -67 74 -23 24 21 49 49 55 62 7
12 18 22 26 22 17 0 41 -128 32 -168 -4 -15 -12 -49 -17 -77 -6 -27 -21 -80
-34 -117 -13 -37 -32 -95 -40 -130 -9 -35 -27 -85 -40 -113 -12 -27 -26 -59
-30 -70 l-7 -20 -8 20 c-4 11 -6 23 -3 28 2 4 2 7 0 7 -2 0 -18 -22 -35 -49
-24 -36 -44 -54 -81 -70 -51 -21 -65 -39 -51 -61 7 -11 14 -11 42 0 18 7 42
22 54 32 11 10 25 18 31 18 11 0 9 -12 -21 -140 -8 -36 -15 -82 -16 -103 0
-42 -50 -158 -83 -192 -28 -29 -91 -67 -139 -83 -30 -11 -42 -11 -60 -1 -13 7
-29 14 -37 15 -7 2 -19 8 -25 14 -13 13 -18 197 -7 268 4 29 5 55 0 57 -4 3
-11 -15 -15 -41 -4 -31 -9 -42 -15 -33 -13 20 -11 -5 2 -33 8 -18 7 -35 -5
-68 -10 -30 -12 -48 -5 -56 11 -13 3 -61 -13 -81 -6 -7 -8 -19 -5 -27 9 -22
-19 -41 -38 -26 -12 10 -15 10 -15 -2 0 -8 -6 -23 -14 -33 -14 -19 -15 -19
-35 -1 -29 26 -37 14 -19 -26 10 -20 15 -59 14 -101 0 -37 2 -67 7 -67 16 0 6
-32 -13 -37 -25 -7 -25 -11 2 -40 12 -13 18 -26 13 -30 -4 -5 -10 -2 -12 5 -6
17 -23 15 -23 -3 0 -8 5 -15 11 -15 7 0 9 -12 5 -34 -5 -24 -2 -37 9 -46 21
-17 19 -36 -7 -62 -13 -13 -21 -32 -20 -43 2 -14 -7 -26 -29 -39 -24 -14 -28
-21 -18 -27 11 -8 9 -13 -9 -29 -16 -13 -21 -25 -17 -42 6 -22 3 -23 -42 -22
-26 1 -63 5 -82 9 -28 7 -33 6 -29 -7 5 -11 -1 -15 -22 -15 -15 0 -37 -9 -50
-21 l-22 -21 25 -25 c15 -14 21 -27 14 -28 -7 0 -16 -2 -22 -3 -5 -2 -16 -3
-22 -4 -7 0 -13 -6 -13 -13 0 -6 -7 -20 -17 -30 -15 -17 -15 -18 5 -18 12 0
22 5 22 11 0 5 5 7 12 3 8 -5 6 -11 -5 -19 -10 -7 -17 -18 -17 -26 0 -8 -14
-30 -30 -49 -16 -19 -30 -38 -30 -43 0 -4 -10 -12 -23 -18 -19 -8 -22 -17 -19
-40 4 -24 0 -31 -16 -36 -25 -6 -32 -21 -25 -55 3 -18 10 -25 19 -21 21 8 17
-4 -14 -51 -15 -22 -31 -49 -34 -58 -4 -9 -24 -24 -45 -34 -21 -10 -50 -30
-66 -46 -15 -15 -34 -28 -42 -28 -21 0 -55 -36 -55 -59 0 -10 -7 -22 -16 -25
-24 -9 -32 3 -12 18 10 7 15 16 11 20 -10 9 -76 -4 -93 -20 -9 -7 -32 -20 -53
-29 -20 -8 -37 -20 -37 -25 0 -6 -7 -10 -15 -10 -8 0 -14 -4 -12 -8 3 -11 -64
-72 -80 -72 -18 0 -16 10 5 34 13 16 13 18 1 8 -9 -6 -19 -9 -22 -5 -4 3 -10
-3 -14 -13 -3 -10 -12 -23 -20 -27 -7 -4 -13 -18 -13 -30 0 -35 -20 -50 -41
-31 -21 19 -39 11 -39 -17 0 -28 -19 -61 -31 -53 -5 3 -17 0 -26 -7 -12 -11
-17 -11 -27 2 -8 12 -32 17 -96 18 -103 2 -120 13 -86 55 15 20 33 30 54 32
43 3 56 12 41 30 -6 7 -9 21 -5 29 6 18 -2 45 -15 45 -19 0 -88 80 -83 95 4 8
10 15 15 15 5 0 9 7 9 16 0 13 -7 15 -37 10 -21 -3 -64 -7 -96 -7 -52 -1 -57
-3 -52 -20 4 -12 2 -19 -7 -19 -9 -1 -9 -4 3 -13 18 -14 30 -42 22 -51 -3 -3
-11 1 -17 8 -6 8 -21 17 -33 20 -18 6 -22 2 -25 -21 -2 -16 -8 -27 -15 -26 -7
2 -13 -1 -13 -5 0 -5 -15 -17 -34 -27 -22 -12 -32 -24 -29 -33 5 -12 2 -12
-15 -3 -11 6 -32 11 -45 11 -28 0 -40 21 -31 56 6 22 11 24 61 24 30 0 67 7
83 15 31 16 54 48 43 59 -12 12 -22 6 -26 -16 -3 -22 -4 -22 -15 5 -6 15 -16
27 -21 27 -5 0 -12 8 -15 18 -19 49 -32 62 -71 70 -23 5 -47 4 -56 -1 -17 -10
-79 16 -79 33 0 6 -6 10 -13 10 -6 0 -25 14 -41 31 -22 23 -29 41 -31 72 0 23
-4 47 -8 54 -8 13 67 53 100 53 11 0 28 12 38 26 11 17 22 23 32 19 9 -3 20 0
24 6 5 8 52 13 141 16 130 4 220 20 283 51 55 27 127 76 116 80 -6 2 -11 11
-11 19 0 13 -8 14 -46 8 -41 -6 -46 -5 -40 10 3 9 6 21 6 27 0 6 11 7 26 4 17
-5 32 -2 43 8 9 8 23 16 31 17 24 5 84 -10 128 -31 108 -52 91 8 -21 74 -131
78 -279 121 -560 161 -96 14 -110 14 -137 0 -37 -19 -63 -19 -100 0 -50 26
-107 20 -250 -24 -74 -24 -143 -47 -152 -52 -24 -12 -29 -11 -26 4 4 21 -13
107 -21 107 -4 0 -13 -12 -19 -26 -9 -18 -19 -24 -35 -22 -19 3 -23 -3 -31
-49 -8 -45 -12 -53 -39 -62 -16 -6 -32 -11 -33 -11 -8 0 -3 37 5 45 5 6 13 43
17 83 6 62 4 72 -9 72 -9 0 -20 7 -25 16 -5 8 -23 16 -40 16 -17 1 -29 5 -26
10 3 5 -2 18 -11 28 -9 10 -14 23 -11 28 3 5 -15 25 -40 46 -36 30 -42 40 -35
55 6 10 13 40 17 69 6 46 4 55 -25 97 -22 32 -30 54 -25 67 4 14 2 18 -5 14
-6 -4 -11 -1 -11 7 0 8 -8 25 -18 38 -10 13 -25 40 -32 59 -8 19 -26 44 -39
56 -21 18 -23 25 -15 44 15 35 -5 90 -33 90 -19 0 -20 2 -10 30 12 31 6 47
-13 35 -7 -4 -9 -18 -6 -31 5 -17 2 -24 -9 -24 -8 0 -15 8 -15 19 0 10 -6 24
-14 30 -8 7 -17 29 -21 51 -4 26 -13 40 -26 43 -11 3 -19 14 -19 26 0 13 -14
30 -40 46 -22 14 -43 25 -46 25 -4 0 -13 8 -20 18 -13 16 -15 16 -28 0 -7 -10
-16 -18 -20 -18 -3 0 -6 8 -6 18 0 9 -7 26 -15 36 -8 10 -12 23 -9 28 3 5 1
15 -6 23 -23 28 -29 223 -7 237 6 4 8 8 3 8 -5 0 -2 8 6 18 8 9 16 34 16 55 1
56 1 57 20 57 31 -1 55 -27 50 -54 -4 -20 1 -27 23 -37 22 -9 29 -18 29 -40 0
-16 4 -29 9 -29 4 0 6 -11 3 -25 -2 -14 0 -25 7 -25 6 0 14 -18 17 -40 7 -44
6 -44 52 -31 35 11 39 5 17 -25 -21 -28 -18 -34 10 -21 14 7 25 15 25 20 0 4
7 7 15 7 8 0 15 7 15 15 0 8 -4 15 -10 15 -5 0 -10 6 -10 14 0 7 -9 16 -20 19
-14 4 -19 12 -18 28 2 16 -3 24 -20 28 -68 18 -58 193 11 199 25 2 77 -19 77
-30 0 -5 9 -8 20 -8 11 0 20 4 20 10 0 5 8 9 18 8 20 -2 82 21 82 30 -1 18
-52 63 -65 58 -8 -3 -15 -1 -15 5 0 13 24 34 107 95 73 53 90 52 156 -11 55
-52 102 -62 162 -34 34 17 40 17 47 5 5 -9 15 -13 23 -10 9 4 15 0 15 -9 0
-15 44 -29 67 -20 7 3 13 14 13 24 0 22 1 22 33 10 29 -11 61 -73 52 -101 -4
-11 -8 -66 -11 -123 -5 -125 -16 -217 -29 -237 -21 -32 -33 -79 -21 -83 8 -3
8 -7 0 -18 -14 -18 -24 -208 -14 -274 4 -27 8 -45 9 -39 2 15 49 35 56 24 3
-5 -2 -21 -11 -35 -12 -18 -22 -23 -39 -19 -20 5 -23 1 -29 -33 -8 -52 -11
-65 -20 -85 -4 -9 -2 -60 4 -113 6 -53 9 -99 6 -102 -10 -11 -68 -9 -73 3 -8
20 -42 3 -48 -25 -3 -14 -1 -41 5 -60 5 -20 6 -39 1 -45 -9 -10 -14 -47 -12
-73 2 -19 41 -16 41 2 0 12 4 13 19 5 25 -13 61 -13 61 0 0 6 10 10 23 10 26
1 57 22 57 39 0 7 4 10 9 7 5 -4 11 -1 13 5 2 6 25 11 51 11 26 0 49 4 53 9 3
5 20 9 37 9 18 0 54 11 81 25 27 14 66 25 87 25 38 0 68 22 126 93 12 15 32
27 45 27 13 0 36 11 52 25 33 28 37 29 86 15 57 -16 134 18 80 35 -11 4 -27
21 -36 38 -26 50 -49 67 -93 67 -32 0 -44 5 -57 25 -14 22 -22 25 -48 19 -17
-3 -35 -10 -40 -15 -6 -5 -19 -9 -30 -9 -12 0 -36 -14 -54 -31 -34 -32 -112
-53 -112 -30 0 6 -4 11 -9 11 -5 0 -28 18 -50 40 -22 22 -44 40 -49 40 -16 0
-42 36 -48 68 -4 20 0 47 11 74 20 49 22 70 29 266 5 122 3 150 -13 190 -16
41 -17 61 -9 162 10 141 11 116 -5 240 -8 58 -21 119 -29 135 -23 43 -105 121
-142 136 -17 7 -53 29 -81 49 -27 20 -79 47 -115 59 -36 13 -69 27 -75 32 -5
5 -33 9 -61 9 -40 0 -56 5 -66 18 -14 20 -50 32 -113 37 -22 2 -64 7 -93 12
-29 6 -51 8 -48 6 5 -5 -46 -63 -57 -63 -4 0 -6 4 -3 9 3 5 -1 14 -10 21 -12
10 -26 11 -64 2 -33 -8 -58 -8 -75 -2 -14 5 -25 6 -26 2 0 -4 -4 2 -8 12 -4
11 -6 61 -5 113 3 73 0 93 -10 93 -14 0 -29 70 -17 80 3 3 7 31 8 63 1 50 -1
57 -18 57 -12 0 -19 7 -19 20 0 11 6 20 14 20 17 0 26 31 26 93 0 34 6 53 21
68 18 18 25 33 28 61 1 4 10 9 20 13 23 7 39 74 20 85 -9 6 -9 18 0 53 6 25
11 59 11 76 0 16 5 33 10 36 6 3 10 17 10 31 0 13 -4 24 -10 24 -5 0 -10 7
-10 16 0 10 6 14 15 10 10 -3 15 1 15 13 0 10 11 38 25 62 37 66 40 72 28 76
-13 5 -5 43 9 43 5 0 17 20 28 45 11 25 24 45 30 45 5 0 10 8 10 18 0 9 9 23
21 30 12 7 18 16 15 19 -9 9 14 43 29 43 8 0 15 5 15 12 0 11 87 98 98 98 2 0
24 18 49 39 24 22 59 43 76 46 18 4 58 18 89 31 62 26 112 30 170 14 28 -8 45
-7 76 5 38 16 69 16 105 0 10 -4 23 -2 32 5 11 9 35 11 78 7 46 -4 66 -2 78 9
14 12 21 12 58 -1 38 -13 46 -13 74 2 17 9 44 16 60 15 16 0 43 7 60 17 20 11
49 17 77 15 30 -1 51 3 62 13 13 12 29 14 64 9 26 -3 54 -1 66 5 16 8 22 7 33
-8 13 -17 15 -17 50 0 20 10 45 15 54 12 9 -3 26 1 37 9 17 13 20 12 27 -8 5
-16 18 -25 40 -28z m8253 -472 c-4 -17 -15 -41 -24 -54 -15 -20 -24 -23 -54
-17 -23 4 -43 17 -57 36 -12 16 -17 29 -11 29 7 0 9 8 5 20 -7 21 -2 24 85 56
33 12 36 11 48 -13 8 -15 11 -38 8 -57z m-2523 -918 c12 -6 27 -19 34 -27 11
-16 56 -21 70 -8 8 9 74 -2 90 -15 8 -6 24 -6 46 1 19 7 50 12 68 12 19 0 57
2 84 4 111 9 370 5 398 -6 26 -11 31 -10 50 13 28 33 49 39 79 24 17 -9 44
-10 97 -5 68 7 121 -2 121 -21 0 -4 11 -5 24 -3 13 3 38 -3 56 -12 19 -10 39
-13 48 -9 10 4 51 9 92 10 41 2 120 6 175 9 55 4 111 7 125 7 80 0 128 -5 147
-14 16 -8 26 -8 35 -1 7 6 36 9 63 7 43 -4 55 -9 85 -44 20 -22 41 -40 48 -40
6 0 22 -21 35 -47 19 -39 22 -52 12 -69 -20 -40 -36 -53 -66 -52 -20 1 -35 -7
-50 -26 -28 -36 -71 -57 -108 -52 -17 2 -32 -1 -33 -6 -5 -15 -116 -38 -184
-38 -48 0 -65 -4 -79 -20 -10 -11 -20 -18 -23 -15 -3 2 -14 -1 -26 -7 -35 -20
-79 -18 -94 3 -7 10 -19 19 -27 19 -7 0 -15 5 -17 11 -2 6 -18 0 -39 -14 -19
-13 -40 -22 -46 -20 -18 6 -23 -28 -13 -87 30 -160 23 -199 -49 -272 -44 -45
-49 -47 -116 -52 -38 -3 -86 -9 -105 -14 -19 -6 -69 -15 -110 -22 -41 -7 -81
-17 -87 -23 -7 -5 -19 -7 -26 -4 -21 8 -174 -27 -372 -85 -38 -11 -85 -20
-104 -19 -18 1 -52 -4 -75 -10 -22 -6 -53 -13 -68 -15 -67 -10 -86 -13 -133
-24 -27 -6 -70 -11 -95 -12 -25 0 -49 -3 -55 -8 -9 -7 -28 -11 -125 -25 -19
-3 -82 -14 -140 -26 -141 -28 -147 -28 -211 13 -58 37 -99 90 -99 127 0 11 -4
21 -9 21 -9 0 -10 3 -35 114 -24 106 -26 140 -11 189 15 50 31 70 90 107 67
43 78 47 135 49 30 1 57 6 58 11 2 6 21 10 43 10 21 0 39 5 39 10 0 6 25 10
55 10 55 0 105 16 105 33 0 5 7 7 15 3 9 -3 15 0 15 8 0 8 -12 19 -27 25 -16
6 -41 20 -58 30 -33 21 -80 27 -90 11 -8 -13 -68 -13 -81 0 -16 16 -74 14
-139 -5 -40 -11 -75 -15 -105 -10 -25 3 -54 7 -65 7 -11 1 -22 4 -25 8 -3 3
-17 13 -31 22 -41 26 -77 107 -74 166 2 38 9 55 31 77 32 33 110 75 137 75 9
0 17 5 17 11 0 6 7 8 17 5 26 -10 114 -20 161 -19 23 1 62 2 87 2 89 0 141 1
195 4 30 2 72 4 92 5 20 1 43 8 50 16 25 25 70 31 101 14z m-9301 -144 c40
-21 63 -49 79 -96 11 -34 9 -42 -17 -93 -33 -66 -50 -78 -120 -79 -48 0 -56 3
-88 36 -20 21 -36 47 -37 60 -3 70 0 89 20 116 20 29 92 72 119 72 7 0 27 -7
44 -16z m1898 -218 c0 -2 -7 -7 -16 -10 -8 -3 -12 -2 -9 4 6 10 25 14 25 6z
m3642 -8 c22 -18 58 -79 58 -100 0 -13 -8 -18 -29 -18 -48 0 -161 -71 -209
-131 -23 -30 -47 -59 -52 -66 -6 -7 -10 -17 -10 -23 0 -5 -4 -10 -10 -10 -5 0
-7 13 -3 32 6 31 6 31 -30 25 -43 -7 -48 5 -13 29 14 8 23 21 20 28 -9 22 25
84 61 112 21 16 35 35 35 48 0 22 27 53 65 74 27 15 98 15 117 0z m-3377 -197
c166 -6 183 -8 218 -30 48 -29 75 -67 59 -83 -9 -9 -32 -8 -89 0 -118 18 -248
15 -338 -8 -98 -25 -110 -25 -135 2 -28 31 -26 69 7 99 37 32 54 39 78 32 11
-4 101 -9 200 -12z m-1304 -218 c79 -19 97 -35 114 -100 10 -39 10 -52 0 -66
-17 -24 -85 -71 -92 -63 -4 3 -13 0 -21 -6 -19 -16 -80 -20 -106 -6 -32 16
-76 60 -76 75 0 8 -7 24 -15 37 -37 56 27 136 114 145 7 0 44 -6 82 -16z m789
-188 c-11 -14 -40 -21 -40 -11 0 3 5 17 10 31 9 24 11 25 26 10 13 -12 14 -19
4 -30z m3277 -317 c-3 -8 -6 -5 -6 6 -1 11 2 17 5 13 3 -3 4 -12 1 -19z
m-4142 -152 c28 -20 27 -118 -1 -163 -12 -18 -23 -31 -26 -28 -3 3 -10 -1 -17
-9 -17 -20 -100 -9 -128 17 -23 20 -32 44 -13 32 6 -3 10 0 10 8 0 8 -6 17
-14 20 -22 9 -5 72 18 72 11 0 22 9 26 19 13 37 110 58 145 32z m10281 -127
c6 -5 14 -6 18 -2 4 4 4 0 0 -10 -7 -20 22 -35 38 -19 17 17 38 -8 24 -30 -8
-13 -7 -21 2 -30 21 -21 13 -63 -27 -141 -43 -83 -62 -106 -106 -127 -16 -8
-38 -21 -47 -28 -14 -12 -21 -12 -33 -2 -11 9 -15 9 -15 1 0 -8 -7 -7 -22 3
-19 14 -23 14 -34 -2 -19 -26 -25 -11 -31 69 -4 62 -1 83 22 143 15 39 32 81
39 92 19 36 73 92 92 97 23 5 65 -2 80 -14z m-9206 -189 c0 -11 -7 -20 -15
-20 -27 0 -18 30 13 39 1 1 2 -8 2 -19z m-998 -167 c6 -7 21 -13 34 -13 15 0
24 -6 24 -15 0 -8 6 -15 14 -15 24 0 31 -98 12 -145 -75 -178 -286 -134 -286
60 0 33 7 48 40 83 22 24 45 40 50 37 6 -3 10 -2 10 4 0 21 84 25 102 4z
m9968 -398 c0 5 7 0 15 -11 8 -10 15 -36 15 -56 0 -21 4 -38 10 -38 5 0 20
-16 32 -35 13 -19 29 -35 36 -35 6 0 12 -6 12 -14 0 -8 5 -16 11 -18 7 -2 12
-31 12 -68 2 -88 -26 -164 -67 -185 -37 -18 -66 -40 -66 -49 0 -3 -10 -16 -22
-28 -29 -29 -75 -32 -107 -7 -19 15 -20 19 -7 19 15 0 14 4 -6 29 -29 38 -38
38 -38 2 0 -17 -5 -33 -11 -37 -38 -23 -47 99 -9 126 15 11 26 66 19 93 -5 18
-3 27 4 27 7 0 -1 11 -16 25 -15 14 -27 31 -27 38 0 7 -9 20 -20 30 -14 11
-20 29 -20 56 0 51 11 102 20 96 4 -2 12 7 18 20 7 14 18 25 27 25 8 0 15 7
15 15 0 9 9 15 23 15 12 0 33 9 47 20 l25 19 37 -42 c21 -23 38 -37 38 -32z
m-8630 -205 c4 0 2 -19 -5 -43 -10 -35 -10 -50 0 -80 7 -20 10 -39 7 -42 -3
-3 0 -5 6 -5 7 0 12 -15 12 -34 0 -20 6 -36 14 -39 8 -3 17 -27 21 -56 7 -52
17 -66 50 -73 15 -3 19 -10 17 -28 -2 -14 -4 -46 -3 -72 1 -39 -3 -48 -20 -53
-12 -4 -18 -12 -15 -21 7 -17 7 -17 -38 1 -20 9 -39 22 -43 30 -3 8 -10 15
-17 15 -20 0 -76 60 -101 110 -14 27 -33 55 -43 62 -30 21 -48 81 -35 121 6
19 7 52 4 73 -5 30 -11 39 -31 44 -18 4 -26 13 -28 35 -3 25 -2 27 12 16 9 -8
16 -20 16 -27 0 -8 5 -14 10 -14 6 0 8 15 4 40 -6 38 -5 40 20 40 22 0 26 -4
26 -28 0 -20 7 -32 23 -38 35 -16 57 -6 57 25 0 29 32 54 58 45 8 -2 17 -4 22
-4z m1080 -170 c8 -4 42 -11 76 -15 45 -5 63 -12 73 -27 11 -17 10 -22 -1 -29
-18 -12 -31 -11 -23 1 9 14 -28 -1 -40 -17 -6 -7 -30 -13 -55 -12 -25 0 -88
-1 -140 -3 -82 -2 -100 1 -135 20 -21 12 -42 18 -45 13 -11 -17 -74 -26 -225
-32 -43 -2 -92 7 -103 18 -8 8 -9 13 -3 13 6 0 11 7 11 15 0 8 -7 15 -16 15
-9 0 -14 6 -12 13 5 14 125 27 148 16 38 -18 129 -21 177 -5 27 9 69 20 94 25
48 9 195 3 219 -9z m-970 -20 c0 -11 -6 -20 -14 -20 -18 0 -29 16 -21 30 11
18 35 11 35 -10z m2279 -16 c-9 -11 -15 -12 -23 -4 -8 8 -6 15 9 26 23 17 34
2 14 -22z m-1083 -27 c4 -4 0 -7 -9 -7 -9 0 -18 4 -21 9 -7 10 20 9 30 -2z
m-3905 -327 c21 0 39 4 39 10 0 17 27 -1 38 -26 7 -13 17 -24 25 -24 21 0 37
-77 23 -115 -15 -42 -50 -85 -70 -85 -9 0 -16 -4 -16 -9 0 -5 -12 -12 -26 -15
-34 -9 -102 36 -111 73 -3 14 -9 31 -13 36 -4 6 -11 27 -14 49 -6 33 -4 42 20
67 15 16 34 29 41 29 7 0 12 3 12 8 -3 16 3 26 8 15 2 -8 22 -13 44 -13z
m5650 -9 c-9 -6 -10 -11 -2 -15 14 -9 15 -36 1 -36 -5 0 -14 10 -21 21 -11 22
0 39 26 39 6 0 4 -4 -4 -9z m-444 -77 c-3 -3 -12 -4 -19 -1 -8 3 -5 6 6 6 11
1 17 -2 13 -5z m-77 -68 c0 -3 -4 -8 -10 -11 -5 -3 -10 -1 -10 4 0 6 5 11 10
11 6 0 10 -2 10 -4z m-2057 -50 c37 -28 25 -96 -18 -96 -11 0 -29 -7 -39 -15
-11 -8 -26 -15 -34 -15 -8 0 -27 -9 -42 -20 -21 -15 -31 -17 -36 -8 -4 6 -2
14 4 16 7 2 12 9 12 15 0 7 15 19 32 27 18 8 46 36 63 62 16 26 32 47 35 47 3
0 13 -6 23 -13z m2134 -37 c-2 -11 -8 -24 -13 -27 -18 -13 -34 -61 -23 -68 6
-3 9 -15 6 -25 -3 -11 2 -23 11 -29 16 -9 16 -9 0 -10 -12 0 -19 -12 -25 -37
-9 -48 -8 -43 -21 -76 -7 -16 -12 -33 -12 -38 0 -5 -6 -9 -14 -9 -8 0 -21 -8
-28 -19 -7 -10 -22 -20 -33 -22 -26 -5 -35 -59 -10 -59 11 0 15 5 11 15 -3 8
-1 15 4 15 5 0 32 23 60 51 56 56 67 54 19 -4 -17 -20 -28 -41 -25 -45 3 -5
-4 -15 -15 -22 -22 -16 -25 -36 -6 -43 10 -4 10 -7 0 -18 -11 -11 -13 -10 -13
4 0 9 -5 17 -11 17 -6 0 -9 -6 -6 -14 3 -8 -2 -16 -14 -19 -10 -3 -19 -10 -19
-17 0 -6 4 -9 9 -6 12 8 41 -3 41 -15 0 -5 -4 -9 -9 -9 -5 0 -22 -5 -38 -12
-15 -6 -31 -11 -35 -10 -5 1 -8 -3 -8 -9 0 -6 8 -8 19 -4 16 5 18 2 14 -15 -3
-11 -9 -20 -14 -20 -5 0 -9 -6 -9 -14 0 -8 -7 -17 -16 -20 -13 -5 -14 -9 -5
-20 9 -10 8 -15 -4 -20 -9 -3 -15 0 -15 9 0 17 -16 20 -25 5 -8 -13 -25 -13
-25 0 0 6 11 15 25 20 14 5 25 11 25 13 0 8 -115 -17 -121 -26 -9 -12 -22 10
-14 23 3 6 17 10 30 10 13 0 27 5 30 10 3 6 1 10 -6 10 -17 0 17 30 55 50 39
20 11 26 -49 11 -54 -14 -75 -14 -75 -1 0 6 11 10 24 10 29 0 44 18 22 26 -8
3 -25 -1 -38 -10 -28 -20 -38 -20 -38 -1 0 8 4 15 9 15 5 0 23 12 40 27 30 27
41 53 21 53 -5 0 -10 -5 -10 -10 0 -15 -52 -59 -70 -60 -13 0 -13 2 -1 9 11 7
7 10 -15 13 l-29 3 46 28 c25 15 61 27 79 27 18 0 31 3 27 6 -3 4 -25 6 -49 6
l-43 -1 28 24 c15 13 27 29 27 35 0 5 10 10 22 10 l22 0 -23 16 -23 16 24 12
c13 7 22 19 20 29 -2 10 7 31 19 48 18 26 27 30 50 25 24 -4 29 -2 29 13 0 11
6 22 13 24 9 4 8 8 -3 16 -8 6 -10 11 -5 12 6 1 15 2 20 3 6 0 20 10 32 21 12
11 34 30 47 43 14 12 23 28 20 35 -3 9 9 17 33 24 61 17 73 16 70 -8z m-1402
-220 c12 -12 15 -19 7 -19 -7 0 -11 -4 -8 -9 9 -14 -4 -41 -20 -41 -8 0 -14 7
-14 16 0 11 -6 13 -20 9 -10 -3 -29 -1 -41 5 l-21 12 26 18 c22 14 24 19 12
23 -9 4 -23 4 -31 1 -8 -4 -15 -1 -15 6 0 20 101 3 125 -21z m-205 -31 c5 -13
9 -19 9 -15 1 5 6 5 11 2 8 -5 7 -11 -1 -21 -9 -11 -15 -11 -25 -3 -8 6 -20 9
-27 6 -8 -3 -20 -2 -27 3 -9 6 -8 12 6 28 25 27 43 27 54 0z m-578 -27 c21
-22 54 -46 73 -52 20 -7 35 -20 35 -29 0 -21 -58 -46 -73 -31 -6 6 -19 11 -29
11 -11 0 -25 16 -38 44 -19 43 -27 96 -13 96 3 0 24 -18 45 -39z m728 -51 l25
-20 -62 0 c-63 0 -73 6 -51 28 18 18 60 14 88 -8z m-190 0 c0 -5 -8 -10 -17
-10 -15 0 -16 2 -3 10 19 12 20 12 20 0z m1220 -74 c0 -3 -4 -8 -10 -11 -5 -3
-10 -1 -10 4 0 6 5 11 10 11 6 0 10 -2 10 -4z m-996 -37 c18 -21 18 -22 -6
-16 -13 3 -30 2 -38 -3 -17 -10 -40 5 -40 26 0 23 63 17 84 -7z m3596 -52 c30
0 66 3 80 5 14 2 31 0 38 -6 30 -22 138 -32 223 -20 27 3 55 1 67 -5 16 -8 27
-7 51 6 24 14 36 16 58 7 16 -5 45 -7 68 -2 22 4 117 7 212 7 l172 1 62 -32
c53 -29 65 -40 85 -85 25 -54 24 -69 -9 -116 -16 -23 -26 -28 -53 -25 -26 2
-38 -3 -50 -20 -8 -12 -21 -22 -28 -22 -8 0 -20 -7 -27 -16 -9 -12 -23 -14
-49 -10 -46 7 -157 -15 -264 -54 -12 -4 -72 9 -150 33 -72 22 -152 45 -178 53
-39 12 -278 114 -336 143 -47 24 -165 61 -230 71 -41 7 -82 20 -95 31 l-22 18
60 2 c33 1 67 2 75 3 8 1 24 -3 35 -10 23 -12 45 -8 45 9 0 20 53 46 80 40 14
-3 50 -6 80 -6z m-6737 -98 c40 -6 79 -14 88 -19 16 -9 214 -5 229 5 10 6 90
15 90 10 0 -2 -10 -20 -22 -41 -16 -27 -39 -45 -92 -70 -39 -19 -77 -34 -85
-34 -50 0 -179 -69 -261 -140 -30 -26 -84 -65 -120 -86 -36 -20 -78 -47 -95
-60 -46 -34 -103 -52 -186 -57 -130 -9 -194 -53 -261 -180 -42 -79 -123 -161
-190 -192 -76 -34 -159 -46 -209 -28 -66 22 -105 5 -177 -76 -34 -37 -74 -73
-89 -79 -15 -5 -57 -20 -92 -33 -35 -12 -84 -40 -108 -61 -32 -28 -53 -38 -78
-38 -19 0 -37 -4 -40 -10 -10 -16 -93 -12 -130 6 -59 28 -115 122 -115 192 0
23 -4 44 -10 47 -5 3 -10 18 -10 33 0 15 -4 34 -9 41 -6 9 -6 22 0 32 6 12 5
20 -2 25 -20 12 -4 106 26 150 33 49 57 69 120 98 79 37 121 45 206 39 l79 -6
0 31 c0 42 -10 68 -21 51 -6 -10 -11 -10 -23 0 -9 7 -25 11 -36 8 -11 -3 -20
-2 -20 3 0 4 -12 8 -27 8 -16 0 -37 1 -48 2 -19 0 -213 2 -265 2 -14 0 -32 6
-40 13 -8 8 -18 13 -23 12 -12 -3 -77 53 -77 66 0 7 -5 18 -12 25 -18 18 -20
73 -3 98 8 13 15 30 15 37 0 8 7 20 15 27 8 7 12 16 10 21 -3 4 9 12 27 17 18
5 48 18 66 29 27 16 41 19 76 12 86 -16 360 -8 457 13 38 9 73 12 81 7 10 -5
34 0 65 13 43 18 61 20 126 14 52 -5 83 -13 98 -27 12 -10 26 -16 31 -13 5 4
25 -2 44 -12 l35 -19 48 26 c39 22 54 26 87 20 48 -9 130 -4 156 10 12 7 18 6
18 -1 0 -7 6 -8 19 0 23 12 61 13 61 3 0 -5 60 -8 133 -8 118 0 134 2 148 19
13 16 33 20 115 24 54 2 101 6 103 8 7 6 26 5 104 -7z m4407 -29 c0 -5 -9 -10
-21 -10 -11 0 -17 5 -14 10 3 6 13 10 21 10 8 0 14 -4 14 -10z m15 -51 c4 -5
0 -18 -8 -27 -8 -9 -17 -29 -21 -44 -3 -15 -12 -33 -20 -40 -11 -11 -11 -15 3
-24 14 -11 14 -16 -4 -51 -28 -55 -29 -56 -18 -50 17 10 75 -23 69 -39 -3 -9
1 -14 12 -14 16 -1 16 -1 0 -14 -10 -7 -18 -25 -18 -39 0 -14 -5 -27 -11 -29
-9 -3 -9 -10 0 -27 7 -13 17 -19 21 -15 8 8 55 132 67 179 3 11 19 38 34 59
16 22 29 45 29 50 1 6 14 27 30 46 17 19 30 40 30 46 0 9 7 10 30 1 17 -6 30
-17 30 -24 0 -7 9 -13 20 -13 11 0 20 -6 21 -12 0 -7 2 -26 4 -43 7 -61 19
-313 20 -410 0 -208 -47 -520 -95 -624 -32 -67 -39 -136 -17 -162 22 -27 91
-74 145 -99 50 -23 51 -24 35 -43 -40 -43 -196 -127 -239 -127 -8 0 -28 15
-43 33 -17 18 -52 41 -82 52 -50 18 -77 19 -361 17 -344 -3 -475 9 -461 43 3
8 10 12 16 8 6 -3 7 -1 3 6 -8 12 3 41 57 147 l31 61 -25 57 c-19 46 -31 60
-59 72 -44 19 -100 56 -100 67 0 5 20 -2 44 -16 24 -13 61 -27 82 -31 80 -14
94 -18 94 -27 0 -5 -12 -9 -27 -10 -26 0 -26 -1 -7 -9 12 -4 30 -20 42 -34 22
-29 50 -34 59 -11 12 34 -67 93 -145 109 l-56 11 -73 115 c-108 171 -113 182
-113 246 0 52 -3 59 -40 96 -22 22 -40 44 -40 49 0 13 81 49 111 49 33 0 95
29 64 31 l-20 0 20 9 20 9 -20 1 c-12 1 -15 4 -7 7 15 6 44 -16 37 -28 -9 -14
56 -25 107 -19 37 5 51 3 57 -8 5 -10 19 -13 39 -10 22 3 29 1 25 -9 -4 -9 4
-13 25 -13 17 0 37 -6 44 -13 18 -17 97 -37 104 -26 3 5 12 9 20 9 17 0 44 23
44 38 0 6 6 12 13 15 8 3 13 16 12 29 -1 12 2 28 7 35 5 7 7 17 4 22 -4 6 3
15 14 21 11 6 18 15 15 19 -2 5 5 11 18 15 18 5 20 8 7 16 -8 5 -11 10 -6 10
5 0 3 7 -4 16 -8 8 -9 14 -4 13 29 -5 42 2 37 21 -3 11 0 20 6 20 6 0 11 7 11
15 0 7 8 19 18 24 14 9 12 10 -13 11 l-30 1 30 24 c16 13 41 25 55 27 18 2 25
9 25 24 0 22 26 54 44 54 6 0 11 5 11 10 0 6 -6 10 -12 10 -7 0 11 11 40 25
28 13 52 29 52 35 0 13 27 13 35 -1z m-252 -6 c-7 -2 -19 -2 -25 0 -7 3 -2 5
12 5 14 0 19 -2 13 -5z m40 -40 c-7 -2 -21 -2 -30 0 -10 3 -4 5 12 5 17 0 24
-2 18 -5z m-9 -84 c-3 -5 -13 -9 -22 -10 -11 0 -12 -2 -4 -6 21 -8 2 -23 -31
-23 -26 1 -29 2 -15 11 10 6 15 16 11 26 -5 14 -1 15 25 10 31 -6 32 -5 27 21
-5 26 -5 26 5 4 5 -13 8 -28 4 -33z m-1054 -625 c0 -2 -7 -4 -15 -4 -8 0 -15
4 -15 10 0 5 7 7 15 4 8 -4 15 -8 15 -10z m-5937 -37 c19 -7 47 -64 47 -96 0
-33 -49 -95 -84 -107 -27 -10 -40 -9 -78 8 -37 16 -47 26 -52 51 -4 18 -9 44
-13 60 -7 35 17 71 59 91 47 21 71 24 88 11 8 -7 23 -15 33 -18z m6187 -78 c0
-6 -4 -7 -10 -4 -5 3 -10 11 -10 16 0 6 5 7 10 4 6 -3 10 -11 10 -16z m-190
-51 c0 -12 -1 -19 -3 -17 -1 2 -9 12 -16 22 -12 14 -11 17 3 17 10 0 16 -8 16
-22z m2250 -8 c0 -5 -16 -10 -36 -10 -21 0 -33 4 -29 10 3 6 19 10 36 10 16 0
29 -4 29 -10z m-1994 -56 c43 -36 124 -151 124 -178 0 -13 -28 -43 -33 -35
-31 42 -78 100 -100 123 -16 16 -33 40 -38 53 -10 27 -12 73 -3 73 3 0 25 -16
50 -36z m2024 -44 c-20 -13 -87 -13 -95 0 -4 6 16 10 52 10 41 0 54 -3 43 -10z
m-2054 -127 c3 -12 15 -25 25 -28 10 -4 19 -10 19 -14 0 -5 14 -14 30 -21 35
-15 39 -43 11 -79 l-18 -24 -35 54 c-66 105 -78 127 -78 143 0 14 3 14 20 4
12 -7 23 -23 26 -35z m1944 -144 c-17 -11 -35 -29 -40 -42 -8 -21 -9 -21 -9
-1 -1 23 16 47 44 62 33 18 38 1 5 -19z m-2046 10 c-2 -4 4 -12 13 -18 10 -6
15 -11 12 -11 -4 0 11 -18 34 -40 22 -22 37 -43 34 -47 -4 -3 -12 -1 -19 5 -7
5 -32 15 -55 22 -31 10 -42 19 -46 37 -6 34 2 60 18 60 8 0 12 -4 9 -8z m2176
-64 c0 -49 -66 -94 -117 -80 -27 8 -26 8 15 16 56 11 84 42 78 88 -5 31 -4 32
9 15 8 -11 15 -28 15 -39z m900 -65 c0 -5 -4 -10 -10 -10 -5 0 -10 5 -10 10 0
6 5 10 10 10 6 0 10 -4 10 -10z m70 -10 c0 -5 -7 -10 -15 -10 -8 0 -15 5 -15
10 0 6 7 10 15 10 8 0 15 -4 15 -10z m60 -20 c0 -5 -7 -10 -16 -10 -8 0 -12 5
-9 10 3 6 10 10 16 10 5 0 9 -4 9 -10z m60 -35 c0 -8 -7 -15 -15 -15 -8 0 -15
7 -15 15 0 8 7 15 15 15 8 0 15 -7 15 -15z m55 -34 c7 -12 -12 -24 -25 -16
-11 7 -4 25 10 25 5 0 11 -4 15 -9z m45 -57 c0 -2 -7 -4 -15 -4 -8 0 -15 4
-15 10 0 5 7 7 15 4 8 -4 15 -8 15 -10z m30 -44 c0 -5 -4 -10 -10 -10 -5 0
-10 5 -10 10 0 6 5 10 10 10 6 0 10 -4 10 -10z m40 -61 c0 -6 -4 -7 -10 -4 -5
3 -10 11 -10 16 0 6 5 7 10 4 6 -3 10 -11 10 -16z m-1350 -9 c0 -5 -11 -10
-25 -10 -36 0 -67 -38 -63 -78 4 -28 2 -31 -11 -18 -20 21 0 89 31 104 29 14
68 15 68 2z m79 -80 c0 -29 -15 -52 -46 -68 -26 -14 -72 -15 -93 -2 -11 7 -5
10 23 10 56 0 101 47 92 93 -7 30 -6 31 9 12 8 -11 15 -31 15 -45z m1301 40
c0 -5 -4 -10 -10 -10 -5 0 -10 5 -10 10 0 6 5 10 10 10 6 0 10 -4 10 -10z
m-3440 -56 c0 -8 -4 -12 -10 -9 -5 3 -10 10 -10 16 0 5 5 9 10 9 6 0 10 -7 10
-16z m320 -410 c0 -8 -2 -14 -4 -14 -2 0 -11 -3 -20 -6 -11 -4 -16 0 -16 14 0
20 18 33 33 25 4 -2 7 -11 7 -19z m27 -60 c-3 -3 -12 -4 -19 -1 -8 3 -5 6 6 6
11 1 17 -2 13 -5z m73 -168 c0 -2 -7 -7 -16 -10 -8 -3 -12 -2 -9 4 6 10 25 14
25 6z m24 -67 c-7 -11 -34 -12 -34 -1 0 14 11 21 26 15 8 -3 11 -9 8 -14z m21
-59 c-3 -5 -11 -10 -16 -10 -6 0 -7 5 -4 10 3 6 11 10 16 10 6 0 7 -4 4 -10z
m33 -52 c-3 -7 -13 -15 -24 -17 -16 -3 -17 -1 -5 13 16 19 34 21 29 4z m22
-68 c-19 -13 -30 -13 -30 0 0 6 10 10 23 10 18 0 19 -2 7 -10z m35 -51 c0 -8
-10 -15 -22 -17 -25 -4 -30 7 -11 26 15 15 33 10 33 -9z m15 -69 c0 -5 -7 -10
-15 -10 -8 0 -15 5 -15 10 0 6 7 10 15 10 8 0 15 -4 15 -10z m2820 -40 c0 -5
-5 -10 -11 -10 -5 0 -7 5 -4 10 3 6 8 10 11 10 2 0 4 -4 4 -10z m10 -130 c0
-5 -2 -10 -4 -10 -3 0 -8 5 -11 10 -3 6 -1 10 4 10 6 0 11 -4 11 -10z m-191
-203 c152 -314 259 -561 327 -757 10 -30 24 -54 29 -53 22 3 34 -20 31 -60 -5
-58 11 -118 33 -124 24 -6 47 -69 31 -88 -16 -19 7 -93 32 -100 21 -7 23 -16
6 -34 -11 -10 -9 -14 5 -22 14 -8 15 -14 7 -24 -15 -19 10 -107 32 -113 21 -5
23 -16 5 -31 -10 -8 -12 -23 -7 -53 4 -24 13 -79 19 -123 7 -44 19 -105 27
-135 7 -30 16 -102 19 -160 3 -58 10 -132 15 -165 5 -33 12 -87 14 -121 2 -33
14 -90 26 -127 20 -61 31 -159 43 -367 2 -30 6 -61 10 -67 4 -7 12 -63 18
-125 5 -62 14 -135 20 -162 11 -57 1 -73 -63 -99 l-37 -16 -7 45 c-5 34 -15
52 -48 81 -40 37 -41 37 -44 14 -7 -47 9 -108 33 -131 14 -13 25 -27 25 -31 0
-11 -154 -58 -320 -98 -74 -18 -218 -59 -320 -92 -102 -32 -216 -66 -255 -75
-38 -9 -122 -42 -185 -74 -179 -89 -237 -103 -510 -125 -238 -20 -539 -51
-660 -70 -131 -20 -240 -29 -240 -20 0 4 10 21 22 38 26 36 26 47 8 427 -23
471 -47 730 -68 730 -4 0 -22 -14 -40 -31 l-34 -32 7 -97 c8 -108 1 -160 -21
-160 -22 0 -23 8 -55 510 -11 179 -24 363 -29 410 -5 47 -8 114 -8 150 l0 65
19 -85 c11 -47 25 -109 31 -137 10 -49 13 -53 40 -53 16 0 31 6 34 13 6 16
-36 270 -106 636 -52 276 -52 276 -111 301 -29 12 -49 47 -49 85 0 29 13 31
54 10 l29 -15 -6 36 c-7 43 -27 68 -70 85 -37 15 -58 39 -52 57 3 7 0 22 -5
32 -14 27 4 34 40 16 24 -11 30 -12 30 -1 0 29 -32 86 -61 107 -33 24 -73 94
-63 110 4 5 15 8 25 5 11 -3 19 -2 19 2 0 13 -40 90 -50 96 -5 3 -10 11 -10
18 0 6 15 -3 33 -20 49 -47 90 -63 190 -76 159 -21 209 -16 322 32 132 56 185
73 211 67 12 -3 31 -25 46 -53 23 -45 27 -48 59 -45 47 5 166 40 214 64 68 34
135 91 167 140 43 69 76 93 232 169 154 77 200 86 216 45 8 -23 12 -24 47 -14
21 6 94 30 161 55 68 24 126 42 129 39 3 -3 0 -18 -6 -34 -11 -25 -5 -42 55
-177 103 -233 187 -449 286 -737 18 -54 38 -98 44 -98 6 0 29 16 51 35 l42 35
-39 113 c-54 160 -247 635 -289 715 -20 36 -71 155 -71 163 0 11 50 12 67 1
16 -10 144 -273 260 -532 19 -41 59 -138 89 -215 75 -193 71 -185 89 -179 8 3
15 10 15 15 0 19 -83 234 -126 325 -24 52 -44 96 -44 98 0 2 -29 64 -64 137
-115 241 -176 371 -176 375 0 7 75 43 90 43 9 0 36 -42 69 -112z m221 83 c0
-5 -5 -10 -11 -10 -5 0 -7 5 -4 10 3 6 8 10 11 10 2 0 4 -4 4 -10z m-2690
-250 c0 -5 -5 -10 -11 -10 -5 0 -7 5 -4 10 3 6 8 10 11 10 2 0 4 -4 4 -10z
m2795 -50 c3 -5 1 -10 -4 -10 -6 0 -11 5 -11 10 0 6 2 10 4 10 3 0 8 -4 11
-10z m-2775 -10 c0 -5 -4 -10 -10 -10 -5 0 -10 5 -10 10 0 6 5 10 10 10 6 0
10 -4 10 -10z m2795 -50 c3 -5 1 -10 -4 -10 -6 0 -11 5 -11 10 0 6 2 10 4 10
3 0 8 -4 11 -10z m-2768 -16 c-3 -3 -12 -4 -19 -1 -8 3 -5 6 6 6 11 1 17 -2
13 -5z m23 -48 c0 -16 -18 -31 -27 -22 -8 8 5 36 17 36 5 0 10 -6 10 -14z
m2760 -2 c0 -8 -4 -12 -10 -9 -5 3 -10 10 -10 16 0 5 5 9 10 9 6 0 10 -7 10
-16z m3253 -55 c16 -18 25 -20 68 -14 40 6 50 4 55 -9 8 -21 30 -20 69 4 32
20 35 20 81 4 37 -12 52 -14 66 -5 23 14 51 14 83 -1 21 -10 31 -9 55 5 23 14
42 16 100 11 55 -5 74 -4 80 6 7 11 12 11 23 2 10 -8 38 -10 90 -6 l76 5 24
-38 c40 -64 41 -67 29 -59 -6 3 -13 -3 -17 -13 -3 -11 -19 -31 -36 -45 -16
-14 -29 -29 -29 -35 0 -17 -45 -23 -85 -12 -24 6 -44 7 -55 1 -10 -5 -20 -7
-22 -4 -3 2 -34 -9 -69 -26 -35 -16 -76 -30 -90 -30 -15 0 -37 -8 -50 -18 -59
-44 -76 -47 -118 -24 -60 34 -181 27 -181 -10 0 -6 -8 -20 -17 -30 -15 -17
-16 -28 -4 -122 9 -71 9 -110 2 -122 -5 -11 -16 -34 -23 -51 -7 -18 -16 -33
-20 -33 -5 0 -8 -7 -8 -16 0 -13 -9 -15 -52 -11 -29 3 -69 9 -88 12 -27 5 -50
0 -95 -20 -33 -14 -62 -29 -65 -33 -7 -9 -68 -39 -99 -47 -33 -10 -40 7 -34
89 8 112 -18 149 -114 167 -26 5 -52 14 -58 20 -5 5 -13 58 -16 117 -6 118
-15 143 -78 216 -62 72 -74 146 -21 131 53 -15 71 -15 96 -2 21 11 35 12 61 4
25 -8 43 -7 67 1 49 18 90 15 121 -9 l27 -22 24 29 c13 16 23 32 24 36 1 17
43 19 61 2 19 -17 22 -17 52 -2 29 15 55 24 82 27 6 0 19 -8 28 -20z m-3246
-11 c-3 -8 -6 -5 -6 6 -1 11 2 17 5 13 3 -3 4 -12 1 -19z m213 -878 c0 -5 -2
-10 -4 -10 -3 0 -8 5 -11 10 -3 6 -1 10 4 10 6 0 11 -4 11 -10z m-2693 -392
c-3 -7 -5 -2 -5 12 0 14 2 19 5 13 2 -7 2 -19 0 -25z m8010 -205 c-3 -10 -5
-2 -5 17 0 19 2 27 5 18 2 -10 2 -26 0 -35z m-7895 -1144 c7 -79 12 -160 11
-179 -4 -138 -1 -305 7 -360 14 -97 13 -150 -4 -150 -16 0 -21 73 -32 445 -3
121 -9 259 -12 307 -4 48 -5 93 -3 99 10 30 21 -29 33 -162z"/>
<path d="M4957 13193 c5 -15 3 -16 -8 -5 -19 18 -46 15 -52 -7 -7 -29 6 -41
41 -38 27 2 32 6 32 29 0 15 -4 30 -10 33 -6 4 -7 -1 -3 -12z"/>
<path d="M4888 13113 c6 -2 18 -2 25 0 6 3 1 5 -13 5 -14 0 -19 -2 -12 -5z"/>
<path d="M4880 12970 c0 -5 5 -10 10 -10 6 0 10 5 10 10 0 6 -4 10 -10 10 -5
0 -10 -4 -10 -10z"/>
<path d="M6992 12516 c-19 -6 -31 -15 -28 -22 3 -7 -3 -13 -12 -12 -35 0 -98
-15 -112 -28 -8 -7 -34 -15 -57 -17 -95 -11 -218 -94 -275 -186 -17 -27 -18
-35 -7 -41 11 -7 10 -10 -4 -16 -9 -3 -17 -16 -17 -29 0 -13 -7 -25 -15 -29
-8 -3 -15 -10 -15 -16 0 -5 7 -10 15 -10 8 0 15 4 15 9 0 5 8 11 18 14 24 8
100 54 141 84 33 26 168 73 205 73 11 0 49 18 85 39 36 22 85 42 109 46 24 4
46 13 48 20 6 16 93 12 125 -6 11 -6 34 -7 51 -3 l31 6 -33 15 c-19 7 -40 11
-47 8 -8 -2 -11 -1 -8 4 3 5 -5 11 -17 13 -22 3 -22 4 7 20 27 15 28 17 10 23
-11 4 -33 12 -48 17 -15 6 -50 8 -77 5 -51 -6 -65 4 -32 22 16 10 15 10 -3 9
-11 0 -35 -6 -53 -12z"/>
<path d="M6920 12500 c0 -5 5 -10 10 -10 6 0 10 5 10 10 0 6 -4 10 -10 10 -5
0 -10 -4 -10 -10z"/>
<path d="M4802 12310 c0 -14 2 -19 5 -12 2 6 2 18 0 25 -3 6 -5 1 -5 -13z"/>
<path d="M7060 12143 c0 -4 24 -19 53 -33 28 -14 55 -29 58 -34 4 -5 14 -6 23
-3 9 4 16 1 16 -5 0 -6 7 -18 15 -27 51 -54 63 -73 58 -91 -3 -11 -1 -20 5
-20 21 0 42 13 42 25 0 7 5 15 12 17 7 3 13 20 14 39 3 38 -16 52 -86 65 -48
8 -90 25 -90 35 0 5 -10 13 -22 18 -38 14 -98 22 -98 14z"/>
<path d="M6643 11996 c-45 -23 -90 -49 -100 -57 -26 -22 -137 -62 -141 -51 -2
6 -11 8 -21 5 -10 -3 -22 0 -25 6 -11 17 -29 13 -22 -4 3 -9 -3 -30 -14 -47
-19 -31 -19 -32 1 -60 16 -22 28 -28 55 -28 20 0 44 4 54 10 14 7 19 5 23 -10
6 -23 35 -27 43 -5 4 8 14 15 23 15 14 0 14 -2 1 -10 -24 -15 -6 -12 31 6 55
27 64 37 42 45 -15 6 -14 8 12 20 17 7 37 19 46 26 31 26 159 82 174 77 8 -3
17 -13 20 -23 2 -9 24 -38 48 -64 50 -54 86 -61 148 -29 25 13 53 17 97 15 86
-3 95 15 38 73 -87 89 -220 111 -376 64 -155 -46 -168 -49 -162 -28 5 21 70
78 89 78 6 0 15 5 18 10 12 19 -20 8 -102 -34z m312 -45 c-6 -5 -26 -12 -45
-16 -31 -7 -33 -6 -21 9 7 9 27 16 44 16 19 0 27 -4 22 -9z"/>
<path d="M7235 11789 c-4 -6 -5 -12 -2 -15 2 -3 7 2 10 11 7 17 1 20 -8 4z"/>
<path d="M6489 11634 c-31 -33 -17 -59 32 -60 77 -1 95 -4 79 -14 -11 -7 -8
-9 15 -8 17 0 54 -4 84 -11 52 -11 145 -9 237 5 38 5 44 9 32 20 -7 7 -40 15
-73 18 -96 7 -145 16 -225 41 -121 38 -152 39 -181 9z"/>
<path d="M5067 11563 c-16 -15 -6 -34 16 -31 17 2 23 -2 25 -24 3 -24 9 -28
47 -34 25 -3 62 -3 82 0 42 7 51 7 88 5 33 -2 41 7 26 25 -9 10 -34 15 -83 15
-84 0 -168 19 -168 38 0 14 -22 18 -33 6z"/>
<path d="M8648 11500 c-4 -14 -8 -41 -7 -60 0 -33 1 -34 10 -10 6 13 9 40 7
60 -3 32 -4 33 -10 10z"/>
<path d="M8016 11484 c-10 -26 -7 -34 14 -34 15 0 20 7 20 25 0 28 -24 34 -34
9z"/>
<path d="M8020 11430 c0 -5 5 -10 10 -10 6 0 10 5 10 10 0 6 -4 10 -10 10 -5
0 -10 -4 -10 -10z"/>
<path d="M8626 11334 c-4 -14 -5 -28 -3 -31 3 -2 8 8 11 23 4 14 5 28 3 31 -3
2 -8 -8 -11 -23z"/>
<path d="M8170 11156 c0 -9 5 -16 10 -16 6 0 10 4 10 9 0 6 -4 13 -10 16 -5 3
-10 -1 -10 -9z"/>
<path d="M7866 10451 c-4 -7 -5 -15 -2 -18 9 -9 19 4 14 18 -4 11 -6 11 -12 0z"/>
<path d="M7302 9558 c-7 -7 -16 -13 -20 -13 -15 0 -55 -35 -49 -42 4 -3 13 -1
19 5 16 16 28 15 28 -1 0 -15 -74 -40 -78 -26 -5 12 -42 12 -42 -1 0 -5 9 -10
20 -10 11 0 20 -7 20 -15 0 -23 23 -18 66 14 63 48 74 60 74 81 0 23 -20 26
-38 8z"/>
<path d="M6695 9535 c11 -8 25 -19 32 -25 7 -5 16 -10 21 -10 5 0 17 -9 27
-20 10 -11 26 -20 36 -20 10 0 21 -4 24 -10 3 -5 11 -10 16 -10 6 0 3 10 -5
22 -19 27 -123 87 -151 87 l-20 0 20 -14z"/>
<path d="M6281 9328 c-1 -21 4 -38 9 -38 12 0 12 27 0 55 -7 16 -9 13 -9 -17z"/>
<path d="M6735 9070 c3 -5 8 -10 11 -10 2 0 4 5 4 10 0 6 -5 10 -11 10 -5 0
-7 -4 -4 -10z"/>
<path d="M6756 9042 c-3 -5 6 -19 21 -32 30 -26 51 -9 25 21 -17 20 -37 25
-46 11z"/>
<path d="M7676 9065 c-3 -9 -6 -22 -5 -28 0 -7 5 -1 10 12 5 13 8 26 5 28 -2
2 -6 -3 -10 -12z"/>
<path d="M7660 8930 c0 -5 5 -10 10 -10 6 0 10 5 10 10 0 6 -4 10 -10 10 -5 0
-10 -4 -10 -10z"/>
<path d="M7722 8831 c-17 -17 -32 -37 -32 -46 0 -12 10 -7 36 19 44 44 41 68
-4 27z"/>
<path d="M7772 8819 c2 -6 8 -10 13 -10 5 0 11 4 13 10 2 6 -4 11 -13 11 -9 0
-15 -5 -13 -11z"/>
<path d="M2310 8310 c-9 -6 -10 -10 -3 -10 6 0 15 5 18 10 8 12 4 12 -15 0z"/>
<path d="M9272 5308 c2 -12 10 -23 18 -23 22 0 19 39 -3 43 -15 3 -18 -1 -15
-20z"/>
<path d="M9415 5311 c-54 -21 -65 -30 -65 -47 0 -19 24 -18 66 2 34 16 61 49
47 57 -5 2 -26 -3 -48 -12z"/>
<path d="M9105 5268 c-122 -62 -192 -115 -240 -182 -50 -71 -105 -111 -212
-156 -37 -16 -68 -34 -68 -41 0 -14 52 -31 57 -19 2 5 17 11 33 15 23 5 26 4
15 -4 -8 -6 -10 -11 -5 -11 6 0 16 -4 24 -9 12 -8 12 -12 -2 -25 -8 -9 -26
-16 -38 -16 -22 0 -22 0 -3 16 17 14 17 15 1 10 -10 -3 -23 -6 -28 -6 -6 0 -7
-5 -3 -11 3 -6 1 -21 -5 -33 -9 -17 -9 -29 4 -59 18 -44 18 -44 135 12 60 28
95 55 175 136 56 55 128 118 160 140 59 40 60 42 63 94 l3 52 -35 -7 c-24 -4
-36 -2 -36 5 0 6 6 11 13 11 8 0 7 4 -3 10 -12 8 -9 10 13 10 18 0 27 5 27 16
0 9 9 27 20 41 18 23 19 44 2 43 -4 -1 -34 -15 -67 -32z"/>
<path d="M9546 5282 c-4 -6 -6 -28 -6 -49 1 -21 -1 -54 -5 -73 -6 -32 -5 -36
14 -36 22 0 28 11 11 21 -5 3 -10 12 -10 18 0 7 9 1 19 -12 10 -13 16 -33 13
-44 -5 -19 -5 -20 -19 -1 -11 15 -16 16 -22 6 -6 -10 -12 -7 -25 12 -9 14 -20
26 -24 26 -4 0 -20 -25 -35 -54 l-26 -55 80 -201 c69 -174 133 -359 185 -535
8 -27 17 -56 19 -63 6 -16 95 44 95 64 0 27 -135 433 -169 509 -12 26 -31 85
-31 96 0 20 20 7 21 -13 1 -17 2 -19 6 -5 9 36 39 18 57 -35 10 -29 25 -71 33
-93 8 -22 19 -49 23 -60 4 -11 13 -33 19 -48 6 -15 11 -41 11 -57 0 -15 4 -30
10 -32 5 -1 19 -32 31 -68 46 -139 51 -150 65 -150 8 0 17 7 20 15 11 27 -136
440 -268 752 -65 154 -81 183 -92 165z m29 -226 c12 5 35 -64 35 -106 0 -16
-4 -30 -9 -30 -10 0 -22 44 -19 70 3 36 -3 51 -19 48 -13 -2 -19 5 -21 27 -2
28 -2 29 10 9 7 -12 18 -19 23 -18z m85 -124 c0 -17 -32 -12 -38 6 -2 6 4 12
12 12 14 0 14 4 -3 28 -20 27 -25 43 -22 72 2 17 51 -98 51 -118z"/>
<path d="M9385 5230 c-19 -8 -19 -9 3 -9 12 -1 22 4 22 9 0 6 -1 10 -2 9 -2 0
-12 -4 -23 -9z"/>
<path d="M9271 5211 c-15 -10 -32 -99 -20 -106 4 -3 19 -1 34 5 24 9 26 14 23
57 -3 48 -13 59 -37 44z"/>
<path d="M9332 5199 c-11 -17 -11 -31 -2 -70 7 -27 16 -51 20 -54 9 -6 50 77
50 100 0 7 -7 16 -16 19 -8 3 -12 2 -9 -4 3 -6 2 -10 -3 -10 -5 0 -13 9 -18
20 -9 20 -9 20 -22 -1z m15 -21 c-3 -8 -6 -5 -6 6 -1 11 2 17 5 13 3 -3 4 -12
1 -19z"/>
<path d="M9237 5003 c-10 -9 -9 -23 1 -23 5 0 17 7 28 15 19 14 19 14 -2 15
-11 0 -24 -3 -27 -7z"/>
<path d="M8295 4965 c-22 -7 -76 -29 -120 -49 -43 -19 -102 -38 -130 -41 -45
-6 -231 14 -292 31 -14 4 -23 2 -23 -5 0 -18 59 -42 116 -48 56 -6 84 -22 42
-24 -13 -1 -29 -1 -35 0 -7 1 -13 -3 -13 -9 0 -5 8 -11 18 -11 9 -1 1 -4 -18
-8 l-35 -6 43 -47 c33 -36 54 -49 93 -58 70 -17 191 -8 264 20 173 66 205 74
246 63 l40 -10 -7 31 c-3 17 -17 49 -30 72 -13 22 -24 52 -24 65 0 14 -5 30
-12 37 -16 16 -72 14 -123 -3z m110 -35 c4 -6 1 -9 -6 -8 -12 3 -15 -2 -18
-35 0 -7 -29 -21 -63 -32 -35 -10 -69 -22 -75 -28 -9 -6 -13 -6 -13 2 0 6 4
11 9 11 5 0 11 9 14 21 3 12 10 18 16 14 6 -3 20 -3 32 0 16 5 18 9 8 21 -8
10 -15 12 -23 4 -5 -5 -17 -10 -25 -10 -24 0 1 20 45 35 47 17 90 19 99 5z
m12 -42 c-3 -8 -6 -5 -6 6 -1 11 2 17 5 13 3 -3 4 -12 1 -19z m-177 -8 c0 -5
-2 -10 -4 -10 -3 0 -8 5 -11 10 -3 6 -1 10 4 10 6 0 11 -4 11 -10z m-30 -4 c0
-3 -4 -8 -10 -11 -5 -3 -10 -1 -10 4 0 6 5 11 10 11 6 0 10 -2 10 -4z m-40
-25 c0 -5 8 -12 18 -15 9 -3 -1 -3 -23 -1 -22 2 -34 2 -27 -1 6 -3 12 -12 12
-20 0 -8 7 -11 18 -9 9 3 1 -2 -18 -11 -47 -22 -120 -31 -120 -14 0 9 11 11
35 7 31 -5 33 -4 21 9 -8 8 -23 14 -34 14 -43 0 -29 15 30 31 76 20 88 22 88
10z m70 5 c0 -2 -7 -6 -15 -10 -8 -3 -15 -1 -15 4 0 6 7 10 15 10 8 0 15 -2
15 -4z m-283 -31 c0 -9 -9 -15 -21 -14 -13 0 -16 3 -7 6 11 5 11 7 0 14 -11 7
-9 9 7 9 12 0 21 -6 21 -15z m48 6 c3 -6 -4 -15 -15 -21 -22 -12 -23 -10 -14
14 7 18 20 21 29 7z"/>
<path d="M9089 4916 c-26 -19 -86 -75 -135 -124 -74 -74 -103 -96 -176 -131
-97 -46 -122 -76 -30 -35 100 44 140 73 263 190 67 63 125 114 130 114 5 0 9
5 9 10 0 16 -12 11 -61 -24z"/>
<path d="M9358 4933 c-16 -4 -37 -68 -26 -79 3 -2 17 0 31 5 26 10 26 9 68
-97 55 -141 105 -287 124 -364 29 -113 67 -228 76 -228 4 0 10 4 14 9 15 25
-237 752 -262 757 -4 1 -16 0 -25 -3z"/>
<path d="M9228 4888 c-17 -14 -30 -76 -17 -83 14 -9 48 30 51 59 3 33 -10 42
-34 24z"/>
<path d="M9656 4875 c-3 -8 -1 -15 4 -15 6 0 10 7 10 15 0 8 -2 15 -4 15 -2 0
-6 -7 -10 -15z"/>
<path d="M8472 4868 c3 -7 17 -14 32 -16 20 -3 27 0 24 10 -3 7 -17 14 -32 16
-20 3 -27 0 -24 -10z"/>
<path d="M9060 4771 c-36 -32 -91 -82 -122 -112 -35 -33 -88 -70 -138 -94 -75
-37 -81 -41 -75 -65 4 -14 10 -28 14 -33 4 -4 43 10 87 31 62 30 106 64 202
151 110 102 122 116 122 147 0 21 -5 34 -13 34 -7 0 -42 -26 -77 -59z"/>
<path d="M9685 4799 c-6 -17 -9 -19 -16 -8 -5 8 -9 10 -9 4 0 -5 4 -16 8 -23
6 -9 12 -5 21 14 6 15 10 29 7 31 -2 2 -7 -5 -11 -18z"/>
<path d="M9314 4766 c-10 -8 -16 -17 -12 -21 11 -11 48 5 48 21 0 18 -11 18
-36 0z"/>
<path d="M8520 4760 c0 -25 35 -80 52 -80 21 0 22 14 7 59 -8 23 -17 31 -35
31 -13 0 -24 -4 -24 -10z"/>
<path d="M9691 4744 c0 -11 3 -14 6 -6 3 7 2 16 -1 19 -3 4 -6 -2 -5 -13z"/>
<path d="M9211 4721 c-16 -10 -23 -71 -8 -71 6 0 3 -8 -6 -18 -10 -11 -17 -35
-17 -57 0 -37 1 -38 18 -22 11 12 18 35 19 70 1 29 4 60 8 69 10 25 3 39 -14
29z"/>
<path d="M9390 4689 c-17 -31 -9 -48 18 -38 15 6 22 17 22 34 0 31 -25 34 -40
4z"/>
<path d="M8355 4674 c-38 -14 -95 -34 -125 -45 -32 -12 -95 -23 -150 -27 -89
-5 -92 -6 -52 -15 56 -11 167 11 277 55 58 23 97 32 143 32 34 1 62 4 62 9 0
4 -6 7 -12 8 -7 0 -26 2 -43 4 -16 2 -61 -7 -100 -21z"/>
<path d="M7830 4676 c0 -14 39 -67 40 -53 0 11 -29 67 -35 67 -3 0 -5 -6 -5
-14z"/>
<path d="M9284 4666 c-8 -14 -14 -34 -12 -46 3 -19 4 -20 26 -5 14 11 22 26
22 46 0 35 -14 37 -36 5z"/>
<path d="M9741 4663 c-1 -6 -4 -20 -7 -30 -5 -17 -5 -17 6 0 6 10 9 23 6 30
-3 9 -5 9 -5 0z"/>
<path d="M9018 4563 c-74 -70 -125 -108 -176 -133 -80 -39 -97 -65 -34 -54 20
4 40 12 44 18 5 6 8 1 8 -11 0 -14 -6 -23 -15 -23 -8 0 -23 -7 -34 -16 -16
-14 -17 -22 -9 -45 5 -16 12 -29 15 -29 3 0 42 19 86 43 50 26 110 70 159 116
l78 73 0 79 c0 43 -4 79 -8 79 -5 0 -56 -44 -114 -97z"/>
<path d="M8310 4560 c-58 -21 -131 -42 -162 -46 -32 -3 -58 -10 -58 -14 0 -5
16 -18 35 -30 41 -25 44 -25 216 31 127 41 158 46 190 29 17 -10 19 -7 19 24
0 40 -11 46 -83 45 -34 0 -89 -14 -157 -39z"/>
<path d="M8600 4590 c0 -5 4 -10 9 -10 6 0 13 5 16 10 3 6 -1 10 -9 10 -9 0
-16 -4 -16 -10z"/>
<path d="M7950 4552 c0 -11 22 -32 32 -32 5 0 4 9 -2 20 -11 20 -30 28 -30 12z"/>
<path d="M9760 4524 c0 -8 6 -11 15 -8 8 4 15 9 15 13 0 4 -7 8 -15 8 -8 0
-15 -6 -15 -13z"/>
<path d="M7896 4488 c9 -31 24 -48 40 -48 20 0 17 23 -5 48 -25 29 -44 29 -35
0z"/>
<path d="M8640 4492 c0 -10 6 -27 14 -38 12 -15 17 -16 27 -7 10 10 10 18 1
38 -13 29 -42 34 -42 7z"/>
<path d="M8575 4479 c9 -30 31 -54 38 -42 8 12 -15 55 -32 61 -10 3 -11 -2 -6
-19z"/>
<path d="M9328 4489 c-22 -12 -24 -49 -3 -49 14 0 35 29 35 49 0 14 -10 13
-32 0z"/>
<path d="M10234 4465 c-8 -21 10 -70 27 -70 18 0 22 25 10 58 -12 30 -28 35
-37 12z"/>
<path d="M8367 4436 c-54 -18 -100 -36 -104 -40 -14 -13 51 -5 109 15 87 29
150 39 165 27 21 -17 15 -28 -14 -28 -16 0 -50 -7 -78 -15 -27 -9 -51 -16 -52
-16 -2 0 -11 -3 -22 -6 -11 -3 -17 -11 -15 -18 8 -19 60 -39 81 -30 48 18 109
23 139 10 30 -12 31 -12 26 9 -3 11 -14 33 -25 48 -11 14 -16 31 -12 37 13 21
-16 41 -59 41 -22 -1 -85 -16 -139 -34z"/>
<path d="M9395 4450 c-4 -13 11 -65 43 -148 27 -70 62 -162 77 -204 16 -46 33
-78 41 -78 21 0 18 16 -36 176 -87 262 -109 305 -125 254z"/>
<path d="M8065 4428 c8 -26 42 -65 68 -80 31 -16 11 31 -28 70 -40 38 -49 40
-40 10z"/>
<path d="M9243 4439 c-16 -16 -17 -49 -3 -49 13 0 23 24 18 45 -2 13 -5 14
-15 4z"/>
<path d="M8010 4420 c0 -14 50 -64 56 -57 3 3 1 15 -5 26 -14 25 -51 47 -51
31z"/>
<path d="M9821 4404 c0 -11 3 -14 6 -6 3 7 2 16 -1 19 -3 4 -6 -2 -5 -13z"/>
<path d="M10072 4372 c-39 -24 -43 -30 -38 -56 8 -40 11 -42 49 -21 63 34 69
41 62 74 -8 37 -17 37 -73 3z"/>
<path d="M9170 4364 c0 -14 4 -23 10 -19 6 3 10 15 10 26 0 10 -4 19 -10 19
-5 0 -10 -12 -10 -26z"/>
<path d="M8700 4370 c0 -5 7 -10 16 -10 8 0 12 5 9 10 -3 6 -10 10 -16 10 -5
0 -9 -4 -9 -10z"/>
<path d="M8630 4360 c0 -5 7 -10 16 -10 8 0 12 5 9 10 -3 6 -10 10 -16 10 -5
0 -9 -4 -9 -10z"/>
<path d="M9287 4363 c-10 -9 -9 -23 2 -23 5 0 11 7 15 15 5 15 -5 20 -17 8z"/>
<path d="M9358 4349 c-3 -8 1 -29 8 -48 9 -20 11 -39 5 -49 -7 -12 -10 -9 -16
16 -8 37 -20 41 -35 12 -9 -16 0 -49 45 -173 31 -83 61 -156 66 -162 6 -6 15
-3 25 7 15 15 15 20 0 63 -8 26 -13 51 -11 55 3 5 1 10 -5 12 -12 4 -63 144
-57 161 2 6 9 -6 16 -28 7 -22 22 -60 32 -83 11 -24 30 -69 42 -100 12 -34 23
-50 25 -40 2 10 -22 87 -53 170 -66 178 -80 207 -87 187z"/>
<path d="M9089 4314 c-44 -46 -143 -117 -191 -137 -36 -15 -49 -39 -29 -51 5
-3 42 11 82 32 90 46 189 134 189 168 0 33 -10 30 -51 -12z"/>
<path d="M7940 4311 c0 -40 35 -298 66 -476 45 -268 54 -318 60 -324 2 -3 14
0 24 7 11 7 39 11 62 11 46 -2 89 8 99 23 6 9 4 26 -31 288 -33 258 -94 440
-146 440 -14 0 -15 -8 -9 -57 11 -89 10 -103 -9 -103 -8 0 -18 -10 -22 -22 -6
-21 -8 -19 -20 16 -16 44 -15 136 1 136 5 0 2 7 -7 14 -10 7 -18 20 -18 29 0
17 -26 47 -41 47 -5 0 -9 -13 -9 -29z"/>
<path d="M8220 4331 c0 -5 8 -19 18 -32 23 -28 37 -11 16 19 -15 22 -34 29
-34 13z"/>
<path d="M9220 4303 c0 -10 -3 -36 -6 -58 -5 -27 -3 -37 4 -30 12 12 21 105
10 105 -5 0 -8 -8 -8 -17z"/>
<path d="M9272 4303 c-6 -12 -12 -30 -12 -39 0 -17 1 -17 16 -2 9 8 14 26 12
39 l-3 24 -13 -22z"/>
<path d="M8610 4304 c0 -7 9 -22 20 -35 10 -13 19 -19 20 -13 0 7 -9 22 -20
35 -10 13 -19 19 -20 13z"/>
<path d="M8730 4302 c0 -15 28 -47 35 -40 11 11 -5 48 -21 48 -8 0 -14 -4 -14
-8z"/>
<path d="M10292 4302 c-14 -9 -6 -68 10 -78 18 -12 31 14 24 50 -7 37 -12 41
-34 28z"/>
<path d="M8316 4291 c-10 -16 28 -51 61 -57 29 -6 31 -4 26 15 -3 13 -21 28
-40 36 -42 18 -40 17 -47 6z"/>
<path d="M8670 4292 c0 -15 28 -47 35 -40 8 8 -13 48 -25 48 -6 0 -10 -4 -10
-8z"/>
<path d="M8138 4274 c17 -32 62 -70 62 -52 0 14 -30 47 -58 63 -11 6 -12 3 -4
-11z"/>
<path d="M9917 4273 c-11 -10 -8 -51 3 -58 18 -11 38 14 32 40 -4 24 -21 33
-35 18z"/>
<path d="M9165 4261 c-3 -5 -1 -12 5 -16 5 -3 10 1 10 9 0 18 -6 21 -15 7z"/>
<path d="M10117 4217 c-34 -19 -38 -25 -33 -51 4 -16 8 -31 10 -33 8 -9 106
48 106 61 0 50 -25 57 -83 23z"/>
<path d="M8480 4218 c0 -9 5 -20 10 -23 13 -8 13 5 0 25 -8 13 -10 13 -10 -2z"/>
<path d="M8580 4224 c1 -15 27 -44 39 -44 7 0 11 5 9 12 -5 14 -48 43 -48 32z"/>
<path d="M9099 4204 c-28 -31 -143 -108 -176 -118 -13 -4 -23 -11 -23 -16 0
-4 10 -6 23 -2 21 5 21 4 5 -15 -41 -45 -6 -57 65 -22 23 12 66 39 95 60 51
39 52 41 52 89 0 28 -4 50 -8 50 -5 0 -19 -12 -33 -26z"/>
<path d="M9167 4223 c-11 -10 -8 -53 3 -53 6 0 10 14 10 30 0 31 -2 35 -13 23z"/>
<path d="M8280 4197 c0 -8 7 -20 15 -27 12 -10 15 -10 15 3 0 8 -7 20 -15 27
-12 10 -15 10 -15 -3z"/>
<path d="M9779 4184 c-27 -18 -35 -31 -32 -45 8 -30 31 -24 101 27 8 6 -10 44
-21 44 -7 0 -29 -12 -48 -26z"/>
<path d="M8366 4171 c-8 -12 24 -37 57 -45 38 -9 36 19 -3 39 -33 17 -47 19
-54 6z"/>
<path d="M8560 4173 c0 -5 6 -18 14 -29 17 -22 35 -11 20 13 -12 19 -34 29
-34 16z"/>
<path d="M9551 4163 c-1 -12 4 -25 9 -28 12 -7 12 2 0 30 -8 19 -9 19 -9 -2z"/>
<path d="M9301 4160 c0 -8 4 -24 9 -35 5 -13 9 -14 9 -5 0 8 -4 24 -9 35 -5
13 -9 14 -9 5z"/>
<path d="M8190 4155 c0 -15 51 -67 58 -60 3 3 -8 20 -26 38 -18 17 -32 27 -32
22z"/>
<path d="M8810 4131 c0 -12 5 -21 10 -21 6 0 10 6 10 14 0 8 -4 18 -10 21 -5
3 -10 -3 -10 -14z"/>
<path d="M8630 4120 c0 -16 7 -20 32 -20 30 0 31 0 13 20 -10 11 -24 20 -32
20 -7 0 -13 -9 -13 -20z"/>
<path d="M8760 4126 c0 -8 5 -18 10 -21 6 -3 10 1 10 9 0 8 -4 18 -10 21 -5 3
-10 -1 -10 -9z"/>
<path d="M9227 4126 c-6 -16 2 -28 14 -20 12 7 11 34 0 34 -5 0 -11 -6 -14
-14z"/>
<path d="M9952 4128 c-14 -14 2 -48 23 -48 19 0 27 16 20 40 -7 22 -25 26 -43
8z"/>
<path d="M10330 4115 c0 -39 18 -69 34 -55 18 15 5 74 -17 78 -13 3 -17 -3
-17 -23z"/>
<path d="M8710 4116 c0 -9 5 -16 10 -16 6 0 10 4 10 9 0 6 -4 13 -10 16 -5 3
-10 -1 -10 -9z"/>
<path d="M9266 4121 c-7 -11 69 -248 85 -265 24 -26 15 32 -21 139 -43 124
-53 144 -64 126z"/>
<path d="M9654 4096 c-6 -17 2 -36 17 -36 12 0 12 37 -1 45 -6 3 -13 -1 -16
-9z"/>
<path d="M9202 4080 c0 -14 2 -19 5 -12 2 6 2 18 0 25 -3 6 -5 1 -5 -13z"/>
<path d="M10168 4077 c-52 -23 -53 -23 -38 -62 11 -28 17 -28 86 0 29 12 31
16 25 46 -4 18 -11 33 -16 35 -6 1 -31 -7 -57 -19z"/>
<path d="M8326 4075 c4 -8 12 -15 20 -15 8 0 11 6 8 15 -4 8 -12 15 -20 15 -8
0 -11 -6 -8 -15z"/>
<path d="M9827 4069 c-43 -22 -55 -43 -38 -63 10 -11 17 -11 48 5 49 25 56 33
48 58 -8 25 -10 25 -58 0z"/>
<path d="M8600 4068 c0 -10 9 -23 20 -30 21 -13 28 -54 10 -60 -6 -2 -6 -8 0
-18 8 -13 10 -12 10 3 0 14 10 17 60 17 33 0 60 3 60 6 0 13 -36 33 -60 35
l-25 1 25 7 c23 7 22 9 -19 20 -23 7 -45 10 -49 7 -3 -3 -11 2 -18 12 -13 16
-13 16 -14 0z"/>
<path d="M8412 4059 c6 -18 72 -41 77 -27 5 15 -11 27 -48 34 -26 6 -33 4 -29
-7z"/>
<path d="M8243 4024 c3 -11 45 -120 94 -244 76 -193 92 -225 111 -228 12 -2
22 0 22 5 0 10 -162 409 -178 440 -7 13 -22 28 -34 34 -18 10 -20 9 -15 -7z"/>
<path d="M9109 4014 c-13 -14 -55 -40 -92 -59 -81 -39 -75 -56 8 -20 62 28
111 61 119 81 10 25 -11 23 -35 -2z"/>
<path d="M9221 4030 c-1 -8 -7 -27 -15 -42 -10 -20 -14 -60 -13 -146 2 -107 0
-123 -22 -165 -36 -70 -51 -79 -51 -30 0 22 4 64 10 94 12 68 17 195 8 204 -6
7 -20 -3 -84 -55 -7 -5 -14 -7 -17 -4 -10 11 -47 -22 -47 -41 0 -11 17 -54 38
-95 21 -42 41 -91 45 -110 l6 -35 -27 34 c-15 18 -62 73 -104 120 l-77 87 -71
1 c-38 1 -72 -3 -76 -8 -3 -5 -10 -7 -15 -4 -5 4 -9 2 -9 -4 0 -16 74 -74 170
-131 93 -56 175 -119 166 -128 -6 -5 -125 29 -201 59 -28 10 -66 23 -84 29
-32 9 -32 9 -19 -13 8 -12 16 -44 17 -72 3 -76 11 -80 128 -65 104 13 159 11
157 -5 -1 -5 -48 -37 -105 -70 l-104 -61 1 -38 c1 -21 5 -41 10 -45 5 -3 10
-13 11 -21 9 -88 15 -106 31 -107 18 -1 42 35 126 187 26 47 56 96 66 110 l20
25 0 -42 c0 -22 -9 -94 -20 -159 -11 -64 -18 -119 -15 -122 8 -9 59 -9 70 -1
6 4 21 9 35 11 43 5 40 61 -15 268 -11 45 72 -58 107 -130 56 -119 81 -127
158 -51 28 27 50 52 50 56 0 3 -12 16 -27 29 l-27 23 35 -4 34 -4 -39 25 c-36
23 -37 25 -15 28 22 4 20 6 -15 22 -30 13 -51 16 -85 11 -37 -6 -42 -9 -26
-16 11 -4 14 -8 7 -8 -7 -1 -30 10 -50 24 -20 14 -42 25 -49 25 -7 0 -13 4
-13 8 0 5 -10 14 -22 20 -23 11 -23 11 2 7 14 -2 61 -7 104 -10 43 -4 73 -10
67 -15 -18 -10 11 -20 57 -19 l37 1 -38 12 c-42 13 -40 26 5 26 35 0 35 10 4
110 -17 56 -27 74 -39 72 -9 -1 -21 7 -27 18 -12 22 -30 27 -30 7 0 -7 -12
-37 -27 -67 -21 -41 -38 -60 -66 -74 -21 -10 -40 -16 -43 -14 -2 3 21 32 51
65 30 33 52 63 49 65 -2 3 2 11 11 18 8 7 15 20 15 30 0 10 7 31 15 46 8 16
15 36 15 44 0 20 -60 203 -70 213 -4 5 -11 -4 -15 -20 l-8 -28 -7 30 c-4 17
-8 23 -9 15z m-14 -102 c-3 -8 -6 -5 -6 6 -1 11 2 17 5 13 3 -3 4 -12 1 -19z
m-102 -391 c0 -26 -20 -25 -23 2 -3 16 1 22 10 19 7 -3 13 -12 13 -21z"/>
<path d="M8870 4015 c0 -8 4 -15 10 -15 5 0 7 7 4 15 -4 8 -8 15 -10 15 -2 0
-4 -7 -4 -15z"/>
<path d="M9350 4020 c0 -8 5 -22 10 -30 9 -13 10 -13 10 0 0 8 -5 22 -10 30
-9 13 -10 13 -10 0z"/>
<path d="M9997 4003 c-12 -11 -7 -40 8 -53 22 -18 39 1 31 34 -6 25 -25 34
-39 19z"/>
<path d="M9686 3991 c-8 -12 3 -41 15 -41 5 0 9 11 9 25 0 25 -14 34 -24 16z"/>
<path d="M8370 3978 c0 -16 155 -415 165 -427 2 -1 8 0 14 3 6 4 3 23 -10 53
-14 34 -17 48 -8 53 12 8 -1 43 -16 40 -5 -1 -19 24 -31 55 -18 43 -21 62 -13
76 16 30 32 11 25 -30 -5 -24 -4 -31 3 -22 7 11 13 2 24 -36 8 -28 23 -65 32
-82 9 -18 15 -40 13 -49 -4 -21 38 -62 64 -62 25 0 22 14 -44 220 -61 189 -67
200 -114 200 -32 0 -34 -2 -24 -20 6 -11 8 -25 5 -30 -3 -5 -1 -11 4 -15 6 -3
7 -13 4 -22 -4 -11 -3 -14 5 -9 15 9 15 1 1 -26 -10 -19 -11 -19 -25 7 -8 15
-14 34 -14 42 0 24 -30 81 -46 87 -8 3 -14 0 -14 -6z"/>
<path d="M9371 3965 c1 -19 18 -51 18 -35 0 8 -4 22 -9 30 -5 8 -9 11 -9 5z"/>
<path d="M9570 3959 c0 -5 5 -7 10 -4 6 3 10 8 10 11 0 2 -4 4 -10 4 -5 0 -10
-5 -10 -11z"/>
<path d="M9852 3950 c-38 -17 -43 -23 -36 -42 9 -33 10 -33 54 -18 50 16 68
36 54 58 -15 23 -24 24 -72 2z"/>
<path d="M10366 3962 c-2 -4 11 -68 31 -142 59 -230 61 -242 73 -355 18 -180
30 -254 60 -360 16 -55 31 -112 34 -127 7 -31 26 -38 26 -10 0 18 -26 135 -53
237 -9 33 -18 106 -21 162 -7 111 -38 312 -55 353 -5 14 -17 59 -26 100 -26
124 -35 150 -50 150 -8 0 -16 -3 -19 -8z"/>
<path d="M10205 3926 c-31 -9 -39 -17 -37 -32 1 -10 49 -205 105 -433 l103
-414 54 -19 c29 -10 55 -16 58 -14 2 3 -7 44 -21 93 -26 88 -41 160 -78 368
-10 61 -40 190 -66 288 -51 193 -46 185 -118 163z"/>
<path d="M8591 3920 c0 -8 4 -24 9 -35 5 -13 9 -14 9 -5 0 8 -4 24 -9 35 -5
13 -9 14 -9 5z"/>
<path d="M8652 3897 c-9 -11 -10 -22 -2 -41 5 -14 10 -28 10 -31 0 -3 0 -15 0
-26 0 -18 2 -19 15 -9 11 9 12 16 5 25 -6 8 -13 25 -16 39 -4 25 -2 26 43 27
27 0 66 4 88 8 38 8 36 9 -25 10 -36 1 -74 4 -86 7 -12 3 -25 -1 -32 -9z"/>
<path d="M9710 3878 c0 -7 5 -20 10 -28 9 -13 11 -13 19 -1 5 8 7 20 4 28 -6
17 -33 17 -33 1z"/>
<path d="M10033 3865 c-3 -9 -3 -29 1 -45 3 -18 1 -30 -5 -30 -6 0 -9 -10 -7
-22 2 -13 9 -22 16 -20 10 2 11 -4 7 -19 -5 -15 -4 -19 5 -14 8 5 11 -2 9 -21
-3 -45 0 -66 10 -59 5 3 12 -4 15 -15 3 -11 8 -28 11 -38 4 -14 0 -18 -15 -17
-28 2 -59 39 -66 77 -3 18 -10 42 -15 53 -5 11 -15 45 -22 75 -8 30 -21 59
-30 64 -23 14 -103 -14 -99 -34 53 -221 167 -667 172 -673 4 -5 32 -11 62 -14
l55 -5 -5 33 c-2 19 -9 40 -15 47 -7 9 -4 11 11 9 29 -4 39 -16 23 -26 -10 -7
-9 -13 5 -30 10 -11 23 -21 28 -21 5 0 19 -12 33 -26 22 -23 50 -28 46 -8 -7
42 -142 594 -166 682 -29 108 -48 137 -64 97z m107 -473 c0 -7 -4 -10 -10 -7
-5 3 -10 16 -10 28 0 18 2 19 10 7 5 -8 10 -21 10 -28z m-60 -7 c0 -5 -5 -3
-10 5 -5 8 -10 20 -10 25 0 6 5 3 10 -5 5 -8 10 -19 10 -25z m44 -21 c3 -8 2
-12 -4 -9 -6 3 -10 10 -10 16 0 14 7 11 14 -7z m-27 -41 c-3 -10 -5 -4 -5 12
0 17 2 24 5 18 2 -7 2 -21 0 -30z m65 -37 c7 4 8 2 4 -5 -12 -18 -26 -2 -25
27 l2 27 4 -28 c3 -16 9 -25 15 -21z m22 -111 c3 -8 1 -15 -4 -15 -6 0 -10 7
-10 15 0 8 2 15 4 15 2 0 6 -7 10 -15z"/>
<path d="M8284 3845 c2 -11 11 -49 20 -85 8 -36 20 -95 27 -132 10 -64 29 -93
29 -47 0 29 -58 248 -71 268 -8 13 -9 13 -5 -4z"/>
<path d="M8611 3855 c1 -19 18 -51 18 -35 0 8 -4 22 -9 30 -5 8 -9 11 -9 5z"/>
<path d="M9613 3853 c-21 -8 -15 -20 12 -26 20 -3 25 -1 23 11 -3 17 -17 23
-35 15z"/>
<path d="M10003 3833 c-18 -7 -16 -30 2 -37 11 -4 15 1 15 19 0 14 -1 25 -2
24 -2 0 -9 -3 -15 -6z"/>
<path d="M9500 3810 c-13 -8 -12 -10 3 -10 9 0 17 5 17 10 0 12 -1 12 -20 0z"/>
<path d="M8700 3786 c0 -2 8 -10 18 -17 15 -13 16 -12 3 4 -13 16 -21 21 -21
13z"/>
<path d="M9623 3777 c3 -8 24 -81 47 -163 22 -82 50 -162 61 -177 11 -16 18
-35 15 -43 -3 -8 1 -26 10 -40 9 -13 14 -35 12 -49 -3 -14 1 -33 8 -42 7 -10
14 -28 14 -40 0 -31 11 -54 21 -47 16 10 10 46 -42 239 -70 262 -89 326 -105
353 -15 24 -50 31 -41 9z"/>
<path d="M9746 3782 c-2 -4 6 -48 19 -97 14 -50 49 -184 80 -300 51 -194 67
-237 79 -224 5 4 -99 422 -140 566 -14 51 -28 71 -38 55z"/>
<path d="M9513 3762 c-10 -6 -2 -39 30 -138 41 -122 45 -129 72 -132 26 -3 27
-1 22 25 -5 25 -4 24 10 -7 30 -66 24 -12 -11 104 -32 106 -51 156 -60 156 -3
0 14 -82 28 -130 14 -47 -12 2 -36 68 -21 61 -30 70 -55 54z m111 -187 c5 -22
4 -26 -4 -15 -5 8 -10 24 -10 34 0 26 6 18 14 -19z"/>
<path d="M10011 3724 c0 -11 3 -14 6 -6 3 7 2 16 -1 19 -3 4 -6 -2 -5 -13z"/>
<path d="M9461 3727 c-2 -17 33 -111 36 -100 2 5 -5 32 -16 59 -11 27 -20 45
-20 41z"/>
<path d="M9401 3708 c1 -31 65 -202 77 -206 18 -6 15 13 -19 121 -20 60 -37
97 -45 97 -8 0 -14 -6 -13 -12z"/>
<path d="M8675 3673 c4 -21 9 -46 12 -57 3 -12 1 -16 -7 -11 -8 5 -9 2 -1 -11
6 -11 15 -38 21 -61 10 -39 31 -61 29 -30 -1 29 -27 154 -37 180 -16 38 -24
34 -17 -10z"/>
<path d="M8541 3644 c0 -11 3 -14 6 -6 3 7 2 16 -1 19 -3 4 -6 -2 -5 -13z"/>
<path d="M10030 3641 c0 -12 5 -21 10 -21 6 0 10 6 10 14 0 8 -4 18 -10 21 -5
3 -10 -3 -10 -14z"/>
<path d="M9520 3531 c0 -6 4 -13 10 -16 6 -3 7 1 4 9 -7 18 -14 21 -14 7z"/>
<path d="M8627 3504 c-14 -14 -6 -24 19 -24 16 0 24 5 22 13 -5 14 -31 21 -41
11z"/>
<path d="M8356 3491 c-8 -12 3 -41 15 -41 12 0 12 37 0 45 -5 3 -12 1 -15 -4z"/>
<path d="M8450 3485 c0 -9 7 -18 15 -21 23 -9 45 3 39 21 -8 20 -54 20 -54 0z"/>
<path d="M8205 3473 c-11 -3 -28 -12 -37 -20 -9 -8 -32 -16 -50 -17 -30 -1
-33 -5 -33 -31 0 -32 8 -34 60 -16 17 5 52 15 78 22 43 11 48 14 45 38 -3 27
-22 34 -63 24z"/>
<path d="M9615 3430 c3 -5 13 -10 21 -10 8 0 12 5 9 10 -3 6 -13 10 -21 10 -8
0 -12 -4 -9 -10z"/>
<path d="M8642 3418 c7 -19 38 -22 38 -4 0 10 -9 16 -21 16 -12 0 -19 -5 -17
-12z"/>
<path d="M7963 3398 c-39 -19 -20 -98 19 -83 22 9 29 29 21 65 -6 33 -8 34
-40 18z"/>
<path d="M8473 3394 c-8 -21 8 -34 35 -28 32 9 30 44 -3 44 -14 0 -28 -7 -32
-16z"/>
<path d="M8590 3400 c0 -5 5 -10 10 -10 6 0 10 5 10 10 0 6 -4 10 -10 10 -5 0
-10 -4 -10 -10z"/>
<path d="M9505 3400 c3 -5 11 -10 16 -10 6 0 7 5 4 10 -3 6 -11 10 -16 10 -6
0 -7 -4 -4 -10z"/>
<path d="M8370 3359 c0 -24 23 -21 28 4 2 10 -3 17 -12 17 -10 0 -16 -9 -16
-21z"/>
<path d="M9640 3355 c7 -8 19 -15 27 -15 13 0 13 3 3 15 -7 8 -19 15 -27 15
-13 0 -13 -3 -3 -15z"/>
<path d="M8230 3349 c-13 -6 -31 -16 -40 -24 -8 -7 -31 -17 -50 -22 -24 -6
-36 -16 -38 -29 -6 -43 19 -43 106 -3 72 33 83 42 80 61 -3 26 -22 31 -58 17z"/>
<path d="M8660 3335 c-10 -13 -9 -15 9 -15 12 0 21 6 21 15 0 8 -4 15 -9 15
-5 0 -14 -7 -21 -15z"/>
<path d="M8766 3342 c-4 -7 2 -40 13 -75 10 -34 25 -90 33 -124 7 -34 18 -61
23 -60 13 2 12 14 -9 112 -20 95 -49 165 -60 147z"/>
<path d="M9520 3341 c0 -5 7 -11 15 -15 9 -3 15 0 15 9 0 8 -7 15 -15 15 -8 0
-15 -4 -15 -9z"/>
<path d="M8606 3321 c-4 -5 -2 -12 3 -15 5 -4 12 -2 15 3 4 5 2 12 -3 15 -5 4
-12 2 -15 -3z"/>
<path d="M9196 3280 c4 -25 10 -54 15 -65 10 -24 0 48 -12 85 -6 16 -7 10 -3
-20z"/>
<path d="M8503 3300 c-26 -11 -30 -28 -9 -36 19 -7 58 14 53 29 -5 15 -18 17
-44 7z"/>
<path d="M9479 3278 c-41 -24 -141 -126 -130 -132 10 -7 52 22 98 67 21 20 49
45 62 55 35 27 11 35 -30 10z"/>
<path d="M9660 3285 c0 -15 38 -40 47 -31 7 7 -26 46 -39 46 -4 0 -8 -7 -8
-15z"/>
<path d="M9221 3264 c0 -11 3 -14 6 -6 3 7 2 16 -1 19 -3 4 -6 -2 -5 -13z"/>
<path d="M7981 3237 c-22 -24 -26 -43 -15 -72 6 -14 9 -13 30 6 24 22 33 72
15 83 -4 3 -18 -5 -30 -17z"/>
<path d="M8387 3254 c-9 -9 4 -35 14 -28 5 3 9 12 9 20 0 14 -12 19 -23 8z"/>
<path d="M8663 3241 c-7 -10 -20 -18 -30 -17 -14 1 -18 -5 -16 -29 4 -56 74
-580 79 -598 8 -25 16 -14 23 30 6 32 10 38 29 35 28 -4 43 32 35 84 -4 27 -3
35 5 30 18 -11 14 23 -4 42 -15 14 -15 17 2 29 15 11 16 16 4 37 -7 15 -10 39
-7 60 3 21 -2 67 -14 113 -11 43 -24 96 -28 118 -14 76 -52 108 -78 66z m100
-301 c3 -11 1 -18 -4 -14 -5 3 -9 12 -9 20 0 20 7 17 13 -6z"/>
<path d="M8956 3224 c-4 -9 -4 -19 -1 -22 2 -3 7 3 11 12 4 9 4 19 1 22 -2 3
-7 -3 -11 -12z"/>
<path d="M8255 3218 c-11 -6 -31 -21 -45 -33 -14 -13 -36 -26 -50 -30 -31 -9
-39 -21 -33 -46 6 -23 26 -25 43 -4 7 8 17 15 23 15 6 0 32 14 59 31 35 23 48
37 48 55 0 26 -14 30 -45 12z"/>
<path d="M9576 3209 c-58 -23 -97 -49 -148 -98 -43 -40 -45 -47 -19 -81 l19
-24 42 42 c23 23 69 55 103 71 47 23 56 30 37 31 -25 0 -25 0 5 16 19 10 44
14 70 11 22 -3 33 -3 25 -1 -9 3 -20 15 -25 27 -13 29 -47 31 -109 6z"/>
<path d="M8516 3193 c-22 -6 -21 -17 20 -448 26 -282 32 -325 44 -325 4 0 20
16 35 36 l27 36 -11 101 c-13 120 -58 503 -66 565 -6 41 -11 45 -49 35z"/>
<path d="M8930 3170 c-6 -11 -7 -20 -2 -20 6 0 12 9 15 20 3 11 3 20 1 20 -2
0 -8 -9 -14 -20z"/>
<path d="M9645 3160 c-3 -5 1 -10 9 -10 8 0 18 5 21 10 3 6 -1 10 -9 10 -8 0
-18 -4 -21 -10z"/>
<path d="M8400 3128 c0 -59 66 -756 76 -801 4 -19 9 -26 16 -19 6 6 2 85 -11
223 -12 118 -28 300 -37 404 -8 105 -17 196 -19 203 -7 21 -25 13 -25 -10z"/>
<path d="M9760 3120 c-14 -5 -56 -18 -95 -30 -38 -12 -89 -31 -112 -41 -50
-23 -113 -75 -113 -94 0 -28 22 -26 56 4 47 42 93 64 194 94 128 38 129 38
140 16 13 -24 30 -25 30 -1 0 42 -50 68 -100 52z"/>
<path d="M9107 3105 c-60 -13 -99 -35 -61 -35 10 0 35 4 54 9 19 5 52 12 73
16 40 6 52 26 15 24 -13 -1 -49 -7 -81 -14z"/>
<path d="M7992 3077 c-21 -22 -32 -87 -14 -87 4 0 20 13 35 29 22 22 27 34 21
55 -8 32 -14 32 -42 3z"/>
<path d="M8265 3081 c-17 -10 -39 -30 -48 -45 -10 -14 -26 -26 -37 -26 -10 0
-22 -5 -25 -10 -3 -6 1 -79 9 -163 18 -172 34 -450 40 -702 3 -93 5 -176 6
-183 0 -23 19 -3 39 43 11 25 30 55 43 68 70 70 108 126 108 158 0 19 -11 140
-25 269 -14 129 -33 318 -43 419 -9 101 -21 186 -27 188 -5 1 -24 -5 -40 -16z"/>
<path d="M9935 3048 c4 -13 11 -27 16 -32 15 -17 23 3 11 29 -15 32 -36 34
-27 3z"/>
<path d="M9350 3042 c0 -5 7 -17 16 -28 14 -17 15 -17 10 -1 -3 10 -6 23 -6
28 0 5 -4 9 -10 9 -5 0 -10 -4 -10 -8z"/>
<path d="M10050 3016 c0 -33 20 -53 70 -69 40 -14 46 -14 56 -1 27 35 0 60
-88 83 -36 9 -38 8 -38 -13z"/>
<path d="M9306 3016 c3 -9 11 -16 16 -16 13 0 5 23 -10 28 -7 2 -10 -2 -6 -12z"/>
<path d="M9260 3006 c0 -8 5 -18 10 -21 6 -3 10 3 10 14 0 12 -4 21 -10 21 -5
0 -10 -6 -10 -14z"/>
<path d="M9100 2992 c-41 -10 -81 -21 -87 -25 -18 -11 -16 -47 2 -47 8 0 14
-3 13 -7 -6 -16 26 -14 139 9 37 8 50 15 46 25 -3 8 0 11 9 8 11 -5 15 1 14
22 -1 24 -5 28 -31 30 -16 1 -64 -6 -105 -15z"/>
<path d="M10236 2964 c-4 -11 5 -28 31 -53 36 -34 38 -35 41 -14 8 53 -55 111
-72 67z"/>
<path d="M9845 2963 c-60 -15 -263 -86 -301 -105 -49 -24 -55 -43 -23 -77 16
-17 24 -20 35 -10 11 9 14 8 14 -4 0 -8 -4 -17 -10 -19 -5 -1 -6 -8 -2 -14 5
-8 53 4 157 37 161 53 190 58 199 33 17 -43 9 -48 -140 -94 -80 -24 -150 -48
-157 -52 -17 -11 12 -58 37 -58 11 0 68 15 126 34 58 19 120 37 138 41 29 6
32 10 32 45 0 50 -15 87 -45 118 -28 28 -32 57 -11 65 11 4 13 14 7 34 -8 29
-21 35 -56 26z m-5 -103 c0 -5 -7 -10 -15 -10 -8 0 -15 5 -15 10 0 6 7 10 15
10 8 0 15 -4 15 -10z m-60 -10 c-8 -5 -11 -10 -7 -10 5 0 5 -5 1 -11 -4 -8 -9
-7 -15 2 -8 11 -11 11 -20 -4 -10 -16 -29 -15 -29 2 0 11 40 30 65 30 17 1 17
-1 5 -9z m-96 -37 c4 -10 4 -14 0 -11 -3 4 -19 1 -35 -7 -15 -8 -35 -15 -44
-15 -15 0 -15 2 -1 15 13 14 51 33 67 34 4 1 10 -7 13 -16z"/>
<path d="M8946 2945 c-3 -8 -1 -15 4 -15 6 0 10 7 10 15 0 8 -2 15 -4 15 -2 0
-6 -7 -10 -15z"/>
<path d="M8876 2934 c-9 -22 3 -32 14 -14 12 19 12 30 1 30 -5 0 -12 -7 -15
-16z"/>
<path d="M8807 2933 c-4 -3 -7 -15 -7 -26 0 -16 3 -17 15 -7 8 7 15 19 15 26
0 15 -12 19 -23 7z"/>
<path d="M9400 2926 c0 -17 14 -29 23 -20 8 8 -3 34 -14 34 -5 0 -9 -6 -9 -14z"/>
<path d="M10415 2893 c9 -49 8 -48 58 -72 57 -27 60 -27 52 12 -12 61 -17 69
-51 83 -57 24 -67 20 -59 -23z"/>
<path d="M9490 2905 c-11 -13 -10 -14 4 -9 9 3 16 10 16 15 0 13 -6 11 -20 -6z"/>
<path d="M9982 2890 c10 -29 25 -46 34 -38 9 9 -18 68 -31 68 -11 0 -12 -6 -3
-30z"/>
<path d="M9352 2896 c1 -10 8 -17 13 -17 15 1 12 24 -3 29 -9 3 -13 -2 -10
-12z"/>
<path d="M9300 2870 c0 -19 11 -26 23 -14 8 8 -3 34 -14 34 -5 0 -9 -9 -9 -20z"/>
<path d="M9102 2851 c-86 -18 -126 -31 -133 -43 -5 -9 -6 -19 -1 -22 12 -7
280 48 293 61 14 14 3 33 -19 32 -9 -1 -72 -13 -140 -28z"/>
<path d="M10090 2863 c0 -41 23 -81 55 -96 54 -26 75 -22 75 11 l1 27 15 -25
c12 -21 14 -22 12 -5 -3 23 -45 54 -106 78 -48 19 -52 20 -52 10z"/>
<path d="M10580 2813 c0 -38 13 -93 22 -93 14 0 5 103 -9 108 -7 2 -13 -4 -13
-15z"/>
<path d="M8900 2789 c0 -11 5 -17 10 -14 6 3 10 13 10 21 0 8 -4 14 -10 14 -5
0 -10 -9 -10 -21z"/>
<path d="M8825 2790 c-8 -13 4 -32 16 -25 12 8 12 35 0 35 -6 0 -13 -4 -16
-10z"/>
<path d="M9454 2786 c-3 -8 1 -28 9 -43 9 -15 18 -37 22 -47 4 -14 9 -16 17
-8 8 8 8 15 1 24 -6 7 -14 28 -18 45 -8 38 -22 51 -31 29z"/>
<path d="M10260 2779 c0 -5 7 -9 15 -9 8 0 23 -20 34 -45 12 -28 26 -45 37
-45 14 0 15 7 10 43 -4 23 -11 46 -16 51 -12 12 -80 17 -80 5z"/>
<path d="M9403 2738 c12 -47 32 -98 39 -98 10 0 10 10 -3 70 -7 34 -16 50 -26
50 -11 0 -14 -7 -10 -22z"/>
<path d="M10020 2743 c0 -24 23 -83 32 -83 10 0 3 63 -8 82 -7 10 -24 10 -24
1z"/>
<path d="M9340 2711 c0 -30 11 -51 26 -51 10 0 12 -8 8 -30 -4 -18 -2 -30 4
-30 18 0 22 16 13 46 -5 16 -12 41 -15 57 -7 31 -36 37 -36 8z"/>
<path d="M10464 2673 c5 -40 13 -54 48 -85 l43 -37 3 29 c5 50 -12 94 -48 118
-48 32 -54 29 -46 -25z"/>
<path d="M9155 2685 c-60 -12 -136 -28 -167 -34 -41 -9 -59 -18 -63 -32 -9
-28 3 -59 21 -52 10 3 12 0 8 -10 -3 -9 -12 -18 -20 -21 -8 -3 -14 -13 -14
-22 0 -13 7 -15 43 -9 103 16 343 67 351 75 5 5 2 15 -7 24 -8 9 -17 12 -19 7
-2 -4 -13 -11 -25 -15 -17 -5 -21 -3 -19 11 2 11 13 19 29 21 29 4 40 23 31
58 -7 29 -7 29 -149 -1z m64 -82 c-12 -21 -80 -29 -107 -14 -14 8 -10 10 18
11 19 0 42 5 50 10 8 5 23 10 33 10 14 0 15 -3 6 -17z m-146 -32 c-13 -11 -31
-17 -43 -14 -41 11 -16 28 45 31 19 1 19 0 -2 -17z"/>
<path d="M10144 2638 c4 -24 12 -48 19 -54 22 -21 104 -64 110 -58 8 8 -4 76
-16 92 -10 13 -100 62 -113 62 -4 0 -4 -19 0 -42z"/>
<path d="M8796 2625 c-8 -31 0 -46 19 -38 19 7 19 37 1 52 -11 9 -15 6 -20
-14z"/>
<path d="M8860 2599 c0 -17 4 -28 10 -24 6 3 10 17 10 31 0 13 -4 24 -10 24
-5 0 -10 -14 -10 -31z"/>
<path d="M9531 2621 c-20 -13 -6 -61 18 -61 28 0 31 10 15 41 -16 33 -14 32
-33 20z"/>
<path d="M9823 2559 c-68 -22 -123 -44 -123 -50 0 -13 1 -13 136 31 86 28 132
38 153 34 24 -5 31 -3 31 10 0 27 -64 19 -197 -25z"/>
<path d="M9455 2570 c-9 -15 6 -60 20 -60 18 0 24 21 14 48 -9 23 -24 29 -34
12z"/>
<path d="M10621 2543 c5 -21 11 -50 14 -65 10 -50 24 -30 19 25 -7 68 -11 77
-27 77 -11 0 -12 -8 -6 -37z"/>
<path d="M10330 2560 c-11 -7 -11 -10 -2 -10 7 0 11 -4 8 -9 -3 -5 0 -14 8
-20 8 -7 17 -23 20 -36 6 -24 42 -52 53 -41 8 8 -19 110 -31 118 -15 10 -38
10 -56 -2z"/>
<path d="M8767 2543 c-13 -12 -7 -23 13 -23 11 0 20 7 20 15 0 15 -21 21 -33
8z"/>
<path d="M9403 2533 c-15 -5 -17 -41 -4 -62 13 -20 31 -4 31 29 0 31 -8 40
-27 33z"/>
<path d="M10085 2500 c-11 -5 -39 -9 -63 -9 -36 -1 -232 -57 -262 -76 -6 -4
-2 -22 11 -47 25 -49 45 -71 58 -64 5 3 12 -1 15 -10 3 -8 2 -12 -4 -9 -6 3
-10 1 -10 -4 0 -6 5 -11 11 -11 6 0 8 -8 5 -17 -3 -10 -1 -25 4 -33 8 -12 23
-10 107 17 54 17 117 34 141 37 49 7 252 63 261 72 11 11 -25 25 -56 20 -19
-3 -34 0 -36 7 -3 9 -8 9 -18 0 -18 -18 -34 -16 -19 2 7 8 20 15 29 15 14 1
14 2 -1 11 -14 7 -23 5 -40 -11 -27 -25 -34 -25 -34 0 0 11 9 23 19 26 28 9
17 35 -28 66 -42 29 -58 32 -90 18z m20 -121 c10 -15 -1 -23 -20 -15 -9 3 -13
10 -10 16 8 13 22 13 30 -1z"/>
<path d="M9250 2484 c-30 -8 -117 -25 -194 -38 -149 -26 -175 -41 -148 -83 9
-15 203 13 347 49 89 23 90 23 93 56 4 37 -6 39 -98 16z"/>
<path d="M9595 2479 c-11 -17 0 -20 21 -4 17 13 17 14 2 15 -9 0 -20 -5 -23
-11z"/>
<path d="M9495 2439 c-10 -15 1 -23 20 -15 9 3 13 10 10 16 -8 13 -22 13 -30
-1z"/>
<path d="M8670 2408 c-26 -43 -25 -48 9 -48 21 0 37 9 55 32 29 37 26 48 -15
48 -22 0 -34 -8 -49 -32z"/>
<path d="M8811 2410 c-8 -25 -8 -32 5 -37 19 -7 22 -4 26 31 4 40 -17 44 -31
6z"/>
<path d="M8866 2397 c3 -10 9 -15 12 -12 3 3 0 11 -7 18 -10 9 -11 8 -5 -6z"/>
<path d="M9435 2389 c-9 -14 -2 -20 14 -10 8 6 9 11 3 15 -6 3 -14 1 -17 -5z"/>
<path d="M9644 2376 c-7 -17 27 -85 52 -107 11 -9 28 -19 39 -22 17 -6 17 -4
-4 13 -13 11 -18 20 -12 20 17 0 13 26 -9 70 -21 41 -55 54 -66 26z"/>
<path d="M9275 2331 c-90 -22 -168 -37 -277 -52 -52 -7 -85 -16 -81 -22 14
-22 416 52 446 82 15 15 -4 13 -88 -8z"/>
<path d="M9530 2335 c-9 -11 -9 -22 0 -49 13 -41 32 -59 57 -54 21 4 20 46 -3
91 -16 30 -35 35 -54 12z"/>
<path d="M9450 2284 c-12 -13 -11 -27 4 -87 11 -40 19 -81 20 -92 1 -22 23
-30 46 -16 12 9 12 15 -3 46 -9 20 -17 52 -18 73 -2 77 -23 109 -49 76z"/>
<path d="M8750 2270 c0 -5 11 -10 24 -10 14 0 28 5 31 10 4 6 -7 10 -24 10
-17 0 -31 -4 -31 -10z"/>
<path d="M8580 2260 c-22 -6 -23 -8 -7 -15 21 -9 67 2 67 15 0 11 -24 11 -60
0z"/>
<path d="M9326 2229 c-60 -18 -246 -53 -349 -65 l-58 -6 2 -77 c1 -42 -1 -91
-6 -110 l-8 -34 94 7 c148 11 373 60 413 89 14 10 15 18 7 40 -6 16 -13 57
-15 93 -2 36 -7 69 -12 73 -5 5 -36 0 -68 -10z m4 -134 c0 -8 -4 -15 -10 -15
-5 0 -10 7 -10 15 0 8 5 15 10 15 6 0 10 -7 10 -15z m-127 -26 c-6 -6 -19 -9
-29 -6 -17 3 -16 5 6 14 28 12 39 8 23 -8z m105 -14 c2 -2 -15 -5 -37 -7 -31
-3 -37 -1 -29 9 8 11 52 9 66 -2z"/>
<path d="M9737 2217 c-28 -20 -12 -50 22 -42 36 9 38 13 15 35 -17 17 -23 18
-37 7z"/>
<path d="M9597 2193 c-4 -3 -7 -19 -7 -35 0 -30 16 -36 51 -18 16 9 17 15 9
31 -6 11 -16 17 -22 13 -5 -4 -13 -1 -17 5 -4 6 -10 8 -14 4z"/>
<path d="M8830 2130 c-22 -43 -25 -66 -11 -74 17 -11 40 6 50 36 27 78 -3 108
-39 38z"/>
<path d="M8657 2128 c-35 -47 -48 -75 -42 -91 3 -7 -1 -19 -9 -26 -8 -7 -12
-19 -9 -27 3 -8 -1 -14 -9 -14 -14 0 -58 -40 -58 -53 0 -12 77 -7 88 6 5 6 13
27 17 46 4 19 24 52 45 75 33 36 70 95 70 111 0 3 -16 5 -34 5 -28 0 -40 -7
-59 -32z"/>
<path d="M8471 2127 c-30 -15 -94 -106 -87 -123 3 -7 -17 -33 -44 -58 -28 -24
-50 -49 -50 -55 0 -17 86 -13 104 5 9 8 16 28 16 44 0 22 13 40 54 77 29 26
63 65 75 86 l23 37 -34 0 c-18 0 -44 -6 -57 -13z"/>
<path d="M8788 1991 c-43 -42 -48 -61 -17 -61 37 0 59 19 57 48 -1 15 1 33 6
40 15 24 -10 10 -46 -27z"/>
<path d="M2803 3745 c-15 -17 -17 -59 -3 -50 6 3 17 19 25 36 12 22 13 29 3
29 -7 -1 -19 -7 -25 -15z"/>
<path d="M4187 3656 c-12 -29 -15 -50 -9 -65 7 -20 10 -21 21 -8 16 20 25 81
15 100 -7 13 -13 7 -27 -27z"/>
</g>
</svg>
